<svg xmlns="http://www.w3.org/2000/svg" viewBox="0 0 220000 194010"><path d="M64261 72698v-96h161l32-65 64-32h97l96 32 32 33 33-33-33-64q16.6-80.7 33-161.5v-95.5l-33-32-32-97c-11-11.6-23.2-22.2-33.6-34.4l-62.4-93.6v-193l32-97c10-1.3 25.3 2.6 32-2v-62l64-64v-97c11.6-33 22.2-66.3 34.5-99l126.5-255c14.5-15.1 30.8-28.7 42.7-46.1l86.3-113.9-65-65-32-96-96-97-32-128-32-32v-65h-97l-129-64c-11.3-1.8-25.7 3.7-35-3l-29-29c1836.7.1 3673.4-.2 5510 .1l2659.1 31.9q3215 .2 6430-.1l287.9-31.9 64-32h97c73.7-75.5 149-149.4 223.8-224 11.8-11.3 23-23.4 35.2-34.3 32-21.8 64.7-42.8 96.4-65l30.6-30.7c-1.3-10.6 2.7-24.5-2-33l-127-63c-42.9 10.6-85.6 21.6-128.5 32-11.9 1-24.7-2.1-36 1.7l-124.5 62.3-97-32-32-32c43.8-98.1 87-196.5 131.2-294.4 10.1-20.7 21-41.1 30.6-62.1l31.2-93.5 32-33v-64c-10.8-21.4-21.3-43-32.4-64.4l-63.6-63.6c10.6-43.2 21.6-86.3 32-129.5v-63.5c-10.8-22.5-22.5-44.7-32.8-67.5l-31.2-93.5 64-129c11-11.6 23.2-22.2 33.6-34.4 21.2-32.2 43.3-64 64-96.6q15.7-31.3 31.7-62.4l127.7-159.6v-65l32-64-32-64 32-65 129-64 32-32-32-97-32-32v-64l32-64-32-193 64-97-64-193 32-96 128-64 33-65-33-96 33-97c-17.4-33.7-34.3-67.8-53.7-100.4L79952 66589l-32-96q.2-32.7-.1-65.5l-31.9-127.5c-32.7-43.8-66-87.1-98.3-131.2l-94.7-158.8v-225l-65-64v-64c11-1.4 25.2 2.7 34-2l31-63 193-96 160-161 65-96v-193c52.6-54.7 107.1-107.4 160.2-161.5l64.8-128.5 161-161v-96c-11-21.5-22.3-42.9-33.1-64.5-11.3-55.7-21.8-111.5-33.5-167l-30.4-122.5q32.1-160.5 64-321l161-322c58.7-58.7 118.2-116.7 176.4-176l16.6-17c.7-10-1.4-24.3 1-31.5 22.4 11.5 45.4 22 67.4 34.2l252.6 158.3c43.4 83.1 84 167.6 126 251.5l35 70.5 161 160q64.7 112.8 129.2 225.5l127.8 321.5c.2 16.2-1 32.5 2.4 48.5l29.6 208.5 33 32h64l64 33c10.6 21.5 21.7 42.9 32 64.5 23.2 147.4 45.6 295 69.1 442.3l27.9 168.2 161 289c10.6 32.5 21.6 65 32 97.5l32 353v96.5l129 128 128 258 225 192 32 258c10.8 21.4 21.3 43 32.4 64.4l32.6 31.6c43.1 11 86.6 21.1 129.5 32.8l63.5 32.2 96 160v97c-21.3 53.5-43 107-64.1 160.5l-31.9 160.5-65 97v96l65 129v64l-97 161c.8 12.3-1.8 25.1 1.7 37l30.3 91 129 161v65l-32 64c1.8 11-3.7 25.7 3 34 31.4 21.2 63.4 41.7 94.4 63.4l30.6 30.6-32 97-64 64 32 97c1.3 10.6-2.7 24.5 2 33q63.4 31.8 127 63l-32 225c11 11.6 23.2 22.2 33.6 34.4l62.4 94.6 64 193-32 161 32 96h129l161-64c75.8 43.3 151.8 86 227.4 129.6l93.6 63.4h161l64 64q.2 64.3-.1 128.5l-31.9 128.5c11.3 10.8 21.7 22.6 33.5 32.7 21.3 10.6 42.7 20.8 63.9 31.7l95.6 96.6q80.8-.1 161.5.1l160.5 31.9 32 97 32 32c22-.2 43.9.5 65.8-.4l159.2-31.6 32-33c22.2 11.2 44 23.3 66.5 33.8 32.1 10.8 64.5 20.9 96.4 32.2 20.8 10.5 41.8 20.6 62.5 31.4 15.5 15.8 32.1 30.7 45.3 48.6l244.3 304 192 97q16.5 48.3 33.3 96.4l63.7 96.6 64 32v97l65 32 32 64v64l-97 129 32 96-32 65c2.1 12-4.7 27.6 4.5 36.5 30.6 30.8 61.6 61 92.5 91.5l32 65c64.3 32.1 128.4 64.4 193 96l193-32 64 32 289.5 32c11.9-1 24.7 2.1 36-1.7l60.5-30.3q32.3 16.2 64.5 32.1l128.5 31.9c21.4 32.9 43.7 65.3 64.6 98.5l96.4 255.5c10 1.2 24.8-2.3 32 1.8v223.2l32 64v65l32 64c12.3-.8 25.2 1.9 37-1.7 30.8-10.2 61.7-20.1 92.4-30.6l95.6-63.7c1-10.5-2-25 1.5-33q47.5.2 95-.1l128.5-31.9c623.5 53.7 1246.9 107.8 1870.3 161.3l543.3 31.8q868.3 80.7 1736.5 161c1255.1 96.6 2510.3 192.7 3765.3 289.5 417.2 42.8 834.3 86 1251.4 128.6q289.2 15.9 578.3 32c808.4 65.5 1616.8 131.3 2425.2 196.6 827 64.3 1653.9 129.1 2480.8 193.2 1154.2 86.3 2308.4 172.6 3462.6 258.1 264.8 19.6 529.5 39.6 794.3 58.9h256q878.3 65.4 1756.6 130.4c1249.4 85.4 2498.8 170.5 3748.3 256.2q366.8 32.3 733.7 64.5c394.3 22 788.7 43.3 1183 65.6 353.6 22 707.2 43.7 1060.7 66.1l2867.7 189.2v64l-97 97-96 193v128l-65 97v64l-64 97v128l-32 97-64 64-129 64-64 65-32 96-65 64-64 129q-16 80.8-32 161.5c1.3 9.9-2.6 25 2 31.5 9.6 1.2 23.2-2.3 30.3 1.8l31.7 223.2c-21.3 53.9-43 107.6-64.1 161.5q-15.9 80.6-32.1 161l-96.8 224.5c.8 12.3-1.9 25.1 1.7 37l30.3 91c-11.6 11-22.2 23.2-34.4 33.6l-93.6 63.4-33 64-128 64-64 322 32 96-32 32c-12.6.9-25.8-2-38 1.7l-91 31.3v96l-32 96 32 97-64 96-32 97-33 32h-96c-11.3 22-21.8 44.6-33.6 66.4-21.3 31.6-42.3 63.4-63.8 95l-95.6 95.6v65l96 64v96l33 65c.1 21.5-.2 43 .2 64.5l31.8 95.5-97 161v97h-64l-32 32c-1 11.7 2.1 24.3-1.7 35.5l-30.3 60.5v161l64 32 32 64v65c-32 32.2-64.4 64.2-96.3 96.4l-64.7 96.6 65 161-32 64 32 96v129l32 64v129l-32 64c-1.8 11 3.8 25.8-3 34l-94 63-32 96-64 32c-.1 21.8.2 43.7-.2 65.5l-31.8 95.5c10.6 43.2 21.6 86.3 32 129.5.1 21.4-.2 42.7.2 64l31.8 95.5c-10.8 44.5-22.5 88.9-32.8 133.6l-31.2 188.4c-21.8 10.8-43.7 21.3-65.4 32.4l-95.6 95.6-32 65c-.1 21.5.2 43-.2 64.5-10.9 32.6-21.2 65.5-32.6 98l-64.2 126.5v129l-64 128v290l32 64-32 129 96 193c15.4.6 31.2-2 46 3.2q57.8 14.6 115.5 28.8h96.5l32 32v129l-32 64 32 96v129c-10.8 11.3-22.6 21.7-32.8 33.5l-32.2 62.5c-21.4 11.2-43 22-64.4 33.4q-80 80-160.6 159.6c1 11.7-2.1 24.4 1.8 35.5a15085 15085 0 0 1 63.2 125.5l32 161 64 128v161l32 32h97l96 97v96l-96 32-32 65 64 96v97l-129 128-32 65 32 32c-.8 12.3 1.9 25.1-1.7 37l-30.3 91c1.5 11.1-3 24.7 2.3 34.3l94.7 94.7c-.2 32.7.4 65.4-.4 98q-16.4 95.8-32.6 191.5v96.5l-32 64v161l-32 64 32 97 129-33 32 33v128l64 97v64l-64 64v129l32 32-32 97q32.2 48.2 64.2 96.5l32.8 95.5-33 161 65 32c-10.6 43.2-21.6 86.3-32 129.5-.7 9.8 1.4 24-1 31l-64-31.5-64 32 32 129-64 96-32 161-65 64-32 97 97 64v64c-12.6-.9-25.8 1.9-38-1.7l-91-30.3c-10.8 11.3-22.6 21.7-32.7 33.5l-31.3 63.5 32 64v129l225-33 32 33v64l-32 64 32 129h64l-32 96 65 65v128l-33 64h97l-64 129v64l32 33c10.5-1 23.9 2 32.5-1.5l31.5-95.5h129c-1.8 11 3.8 25.8-3 34l-94 63c1.6 10.5-3.3 25.4 2.5 33l158.5 63h161l64-32 32 64v65l32 64v64c-10.8 22.2-22.6 44-32.8 66.5q-31.4 95.3-63.2 190.5v193l-97 32-64 97c-11.7-1-24.3 2.1-35.5-1.7l-60.5-30.3-65 32 32 96 65 32c-1 12 2.1 25-1.7 36.5l-30.3 60.5-129 32-32 32 64 129 32 32c-.2 22 .5 43.9-.4 65.8l-31.6 159.2 32 129-64 128c11.3 1.8 25.8-3.7 35 3l61 62v193c-21.5 32.1-42.7 64.4-64.4 96.4l-31.6 31.6v161c-11 11.6-23.2 22.2-33.6 34.4q-31.3 47.5-62.8 95l-64.6 63.6-32 64-96 64q-.2 64.8.1 129.5l31.9 128.5-32 64-65 32-64 129-96 96-129 65-96 128-33 322-64 96q-16 80.8-32.2 161.5l-63.8 192.5-97 128-64-32-65 32c-11.3 1.8-25.9-3.8-35 3.1-9.9 10.5-20.6 20.3-29.7 31.4l-31.3 62.5 96 128-32 161 32 65-32 96 65 129v418l-97 96v97l64 96v129l97 225c-11 32.6-21.4 65.5-33 98l-31 62-129 97h-96l-65-64h-64q-.2 32.3.1 64.5 16.1 64 31.9 128v96.5l-64 64c-53.1 107.8-107.3 215-161.2 322.5-21.6 64.6-42.6 129.5-64.5 194l-31.3 62.5 32 161-32 96-65 32c10.6 43.2 21.6 86.3 32 129.5-1 11.6 2 24-1.7 35q-30.9 63-62.3 125.5l64 96v65l65 64 32 64-32 97 32 128-161 258 32 160-128 257c-11 1.4-25.2-2.7-34 2l-31 63 32 96c-1 11.7 2.1 24.4-1.7 35.5-10.3 20.6-20.2 41.4-30.7 61.9-10.6 11.1-22.4 21.4-32.3 33-10.6 21-20.8 42.2-31.7 63l-31.6 31.6v97l64 96-32 65-96 64-97 161v160l-32 97 64 64c-1.3 10 2.6 25.3-2 32-12 1.7-26-4-36 4l-187 125c-11 1.8-25.7-3.7-34 3l-62 93v97q-222.8 126.5-445 254.1c-11.3 6.3-25 7-37.2 10.9l-96.8 24-96-32c-11-21.5-22.3-42.9-33.1-64.5l-31.9-160.5-96-64h-65c-10.8 21.4-21.3 43-32.4 64.4q-32 32-64 63.9l-95.6 64.7-97-65-129 32-64 129h-64c-10.8 21.4-21.3 43-32.4 64.4l-64.6 64.6-193-32-96 96-64 161-129 32-96 225-33 32h-128l-97 64v129l-64 97v96l32 64 65 32c-1.8 11.2 3.8 26.5-3 35-32.4 21-64.2 43-97 63.5l-61 30.5-32 97v160l64 65v64l-129 193c1 11.7-2.1 24.3 1.7 35.5l30.3 60.5c-1.6 12 3.4 26-3 36.6l-61 92.4 32 96v65l-32 32-96 32-32 64c.8 12.3-1.8 25.1 1.7 37q15 46 30.3 92v64h-129l-32-96h-64c-1.3 10 2.6 25.3-2 32-9.1 1-24-2-29.5 1.6 16 47.8 31.3 95.9 49.6 142.9l77.9 209.5c-.1 21.5.2 43-.2 64.5l-31.8 95.5c-10.8 11.3-22.7 21.8-32.9 33.6l-160.1 288.4v64l-129 64c-32.4 54.7-65.4 109-97.5 164-10.3 20.8-20.3 41.7-30.9 62.4l-96.6 95.6-32 96-32 33-96-97h-193l-32 64v97l-65-32-64 32-64 161c-21.9 10.6-43.5 21.7-65.5 32l-224.5 32-96-32h-65l-32 32-32-32-96 64-322-64-64 32h-225l32 96-32 129c-10 1.3-25.3-2.6-32 2v62l-129 97v96c-32.3 32-64 64.6-96 97-11.6 33-22.2 66.3-34.5 99l-30.5 61c-.9 12.6 1.9 25.8-1.7 38l-30.3 91c-1.8 11 3.7 25.7-3 34l-93 63-33-33c-31.4 32.9-63.9 64.8-96 97l-97-32q-96.3 48-192.4 96.3l-96.6 64.7h-64c-21.4 10.8-43 21.3-64.4 32.4l-32.6 31.6c-11.7-1-24.3 2.1-35.5-1.7l-60.5-30.3-64 32v96l-97 32 32 65-32 64v161h-96c1.4 11.5-2.9 24.8 2.3 35l93.7 126c-1.3 10 2.6 25.3-2 32h-62l-64-65c-11 1.4-25.2-2.7-34 2l-31 63c-1 10.2 2 24.3-1.5 32h-94.5l-65 64h-128c-1.3-10 2.6-25.3-2-32-12 1.6-26-3.9-36 4l-91 60v65c-10.6 2-26-4-33.5 3l-30.5 61 32 32v97l-32 32v96l64 64-64 33c1.8 11.4-3.7 25.7 3 35l61 61h161v97c11.6 11 22.2 23.2 34.4 33.6l94.6 62.4-33 32c.7 9.5-1.4 25.6 1 31l32-31 64 32-64 33 32 32v64l-32 64h-97v65c10.2 1 24.3-2 32 1.5v94.5l-32 32v64l-64-32v65l-64-65c-10.4 1.3-26-2.7-33 2v63l33 32h-65l32 64-32 32h-64l-64-64h-32l32 129-97-65h-64l32 65-32 32c1.3 10-2.6 25.3 2 32h62l32 129-32 32c-10.8-21.8-21.3-43.7-32.4-65.4l-31.6-31.6q-32.5 32-64 65l64 96-32-32a15153 15153 0 0 0-129 64c1.3 10-2.6 25.3 2 32h62l-32 32v129h-64l-32 64v97c-11.4 1.8-25.7-3.7-35 3l-30 29-32-32-96 96c-10 1.3-25.4-2.7-32 2v63c-10-1.3-25.4 2.7-32-2-1.3-9.7 2.7-24.8-2-31-11.4 2.1-26.5-4.6-35 4.1l-28 28.9-32-33-32 65h-64l-65 32c9.8.7 26.3-1.3 32 1-11.3 10.5-21.7 22-33.5 31.7l-62.5 31.3v64c-11.3 1.8-25.8-3.8-35 3l-29 30c-10-1.3-25.4 2.7-32-2v-63c-10.4 1.3-26-2.6-33 2-1.3 9.4 2.6 24-2 30-8.8.7-24.2-1.4-29 1l64 64-33 64c10.4 1.3 26-2.6 33 2-1.3 9.4 2.6 24-2 30h-127c10.6 1.4 24.5-2.7 33 2l31 63c-10-1.3-25.4 2.7-32-2-1.3-9.7 2.6-24.6-2-31-9.4 1.3-24-2.6-30 2v63l-32-32c-1.8 11.4 3.7 25.7-3 35l-29 29-32-32h-97l-32-32-32 32c-.7-9.5 1.3-25.5-1-31l-31 31v64l32 32c-10 1.3-25.3-2.6-32 2v62l-33 33c-10 1.3-25.3-2.6-32 2-1.3 9.4 2.6 24-2 30-9.6.9-22.5-1.7-30 1.3v159.7l-32 32c-1 11.7 2.1 24.3-1.7 35.5l-30.3 60.5c-1.3-10 2.6-25.3-2-32-9.4 1.3-24-2.6-30 2v127l32 32-32 32v64c-9.5.7-25.5-1.3-31 1l31 31c-10 1.3-25.4-2.7-32 2-1.3 9.7 2.7 24.8-2 31-9.6.7-23.6-1.4-30.5 1l32.5 63c-10.4 1.3-26-2.6-33 2 1.3 9.4-2.7 24 2 30 9.7 1.3 24.6-2.6 31 2v62c.7-9.5-1.3-25.5 1-31l31 31c-1.8 11.4 3.7 25.7-3 35l-29 30c-10.4 1.3-26-2.6-33 2v30-30 62l-32-32c-9.5.7-25.5-1.3-31 1l31 31h-64l32 32c-10 1.3-25.3-2.6-32 2-1.3 9.4 2.6 24-2 30h-62l32 32h-65l-32 33c-.1 21.5.2 43-.2 64.5l-31.8 95.5c-10 1.3-25.3-2.6-32 2-2 11.1 4.4 25.7-4 34.2-9.5 10.1-20 19.6-28.7 30.3l-31.3 62.5-32-32-33 32c-.1 21.5.2 43-.2 64.5l-31.8 96.5v64c-10.2 1-24.3-2-32 1.5v94.5c-10.8 11.6-22.6 22.4-32.7 34.5l-31.3 62.5h-65l33 96-65 33c-2 10.6 4 26-3 33.5l-61 30.5v64l32-32c1.3 10-2.6 25.3 2 32 8.9.7 24.2-1.3 29 1l-31 31c-1.3 10 2.6 25.3-2 32-9 .4-23.6-.7-29 .5 21.1 11 42.4 21.6 63.4 32.9l31.6 31.6-32 32c10 1.3 25.3-2.6 32 2-1.3 9.4 2.6 24-2 30-9.4 1.3-24-2.6-30 2v62h65l-33 32h-30c9.4 1.3 24-2.6 30 2v63l-32 32v-30c-2 11 4.4 25.6-4 34l-28 28c10 1.3 25.3-2.6 32 2-1.3 9.4 2.6 24-2 30-9.4 1.3-24-2.6-30 2-1.3 9.4 2.6 24-2 30-9.4 1.3-24-2.7-30 2-2 11.4 4.5 26.3-4 35l-60 60 32 32-32 32c10 1.3 25.3-2.6 32 2v127c-.3-9.6.7-25-.5-31l-31.5 63c-1 11.7 2.1 24.3-1.7 35.5l-30.3 60.5v97-30c-1.1 11.4 2.6 24-2.3 34.4l-30.7 59.6c1.3 10-2.7 25.4 2 32h31c-10.4 1.3-26-2.7-33 2v63l33 32-33 32 33 32v161l-33 32c-1.8 11.4 3.7 25.7-3 35l-29 29c9.5.7 25.5-1.3 31 1l-31 31v65l32 64v64c9.8.7 26.3-1.4 32 1l-32 32 33 32c-1.8 11.3 3.8 25.8-3 35l-30 29c10.4 1.3 26-2.6 33 2 2 11-4.4 25.6 4 34l28 28-32 32 96 65c.7-9.5-1.4-25.5 1-31 11 10.5 21 22 32.5 31.7l62.5 31.3c1.8 11.3-3.8 25.8 3 35q31.4 30 62 61c10.6 1.4 24.5-2.7 33 2l31 63c9.5.7 25.5-1.3 31 1l-31 31 64 64-32 32 32 65 65 64c1 11.7-2.1 24.3 1.7 35.5l30.3 60.5-32 161 64 64c1.8 11.7-3.7 26.4 3 36l29 29-32 96 161 97 64 128c10.8 11.3 22.6 21.7 32.7 33.5l31.3 63.5v289h-482l-96-32-33-64c-12.5-1.3-26.4 3-38-3-40.6-20-81-40.9-121.4-61.5-11.8-1.8-24.4 1.2-36.1-1.7-31.9-10.3-63.5-21.4-95.5-31.1l-191-31.7-128 32-33 32c-12.3-.8-25.1 1.9-37-1.7l-91-30.3-97 32-96-64c-10-1.3-25.3 2.6-32-2-.7-8.9 1.3-24.2-1-29l-31 31-33-64c-1.3 10 2.6 25.3-2 32-9.4-1.3-24 2.6-30-2-.7-8.9 1.3-24.2-1-29l-31 31c-.7-9.5 1.3-25.5-1-31l-31 31c-.7 9.5 1.3 25.5-1 31l-31-31c-1.3 10 2.6 25.3-2 32-9.5 1-23-2-30 1.5v95.5c-11.1 11.3-23.3 21.6-33.7 33.5l-31.3 62.5c-11.4 1.8-25.7-3.7-35 3l-29 29c-21.4-10.8-43-21.3-64.4-32.4l-31.6-31.6c-11.7-1.8-26.4 3.7-36-3l-29-29h-64l-64-32h-65v-65c-11.4 1.8-25.7-3.7-35 3l-29 29h-64c-1-10.5 2-23.9-1.5-32.5l-95.5-31.5-32-64c-1.3-10 2.6-25.3-2-32h-62c-.7 9.5 1.3 25.5-1 31l-31-31h-129c-2 10.6 4 26-3 33.5-20.5 10.3-41 20.3-61.4 30.9a3801 3801 0 0 1-64.6 63.6l-32 65-32-65h-64c-1.3-10 2.6-25.3-2-32-11 2-25.6-4.4-34 4l-28 28-33-32c-15.4.3-31-1.4-46 2.8l-147 29.2-64-64c-1.3-10 2.6-25.3-2-32-8.9-.7-24.2 1.3-29-1l31-31h-64c-1.3-10.4 2.6-26-2-33-9.4-1.3-24 2.6-30-2v-62c-11.7 1.8-26.4-3.7-36 3l-29 29v-64l-32-32c-10-1.3-25.3 2.6-32-2-1.3-9.4 2.6-24-2-30-9.4-1.3-24 2.7-30-2-.7-9.2 1.3-25-1-30l-31 32c-1.8-11.7 3.7-26.4-3-36l-29-29-65 32v-64c-9.5.7-25.5-1.3-31 1l31 31c-10.6-2-26 4-33.5-3l-30.5-61h-96c-1 10.2 2 24.4-1.5 32h-95.5l-32-32-32 32c-10 1.3-25.3-2.6-32 2-.7 8.9 1.4 24.2-1 29l-32-31 33-64c-9.8-.7-26.3 1.3-32-1l32-31-33-65v-64c11.2-21.4 22-43 33.4-64.4l31.6-31.6v-65l128-160q32.8-64.3 65-129c1-11.7-2.1-24.4 1.7-35.5l62.3-125.5 32-32c2-10.6-4-26 3-33.5 20.5-10.3 41-20.3 61.4-30.9l32.6-31.6v-97c23.7-11.5 46.8-24.2 71-34.8l154-61.2 32-32h257l64-65 65 32 64-32h32l97-1993-65-32v-65l-64-32-129 32-64 65h-64v64c-11 11.6-23.2 22.2-33.6 34.4l-63.4 94.6h-96l-65 32-32 96-32 32-32 97 32 96-193 64c-10.8 11.6-22.6 22.4-32.7 34.5-10.6 21-20.8 42-31.7 62.9-99.3 99-198.1 198.6-297.7 297.4q-11.9 11.9-24.4 23.4l-95.5 32.8c-1.3 10 2.6 25.3-2 32-11 2-25.6-4.4-34 4l-28 28-33-32c-15 .5-30.5-1.9-45 3.2l-115 28.8q-32.2 64.7-65 129c-10 1.3-25.3-2.6-32 2-.7 8.9 1.3 24.2-1 29l-31-31v128c10 1.3 25.4-2.7 32 2-1.1 11.4 2.5 23.9-2.2 34.5l-29.8 60.5v96l-96 97c-1 11.7 2.1 24.3-1.7 35.5l-30.3 60.5 32 32-32 32-65-32h-64l-32 32v-30c-.7 8.9 1.3 24.2-1 29l-31-31-65 32-32-64-32 32-32-32h-65l-32-32c-21.4 10.8-43 21.3-64.4 32.4l-31.6 31.6c-11.3 1.8-25.7-3.7-35 3l-29 29h-65l-32 32h-64l-32 65c-21.8 10.8-43.7 21.3-65.4 32.4l-31.6 31.6h-96l-32 32h-161l-64-32c-10.4-1.3-26 2.6-33-2v-30c-1 9.4 2 26.3-1.5 31-32.5-21.4-64.5-43.7-97.4-64.5l-61.1-30.5 32-33 32-96c-10-1.3-25.3 2.6-32-2-1.3-9.4 2.6-24-2-30-8.9-.7-24.2 1.3-29-1l31-31-32-32v-65l32 32v-64l-97-32-64-64c-1.8-11.7 3.7-26.4-3-36l-29-29-32 32-32-32-161-32-32-64c-1.3-10 2.6-25.3-2-32-9.3-.7-23 1.4-29.5-1l31.5-64c-10-1.3-25.3 2.6-32-2-1.3-9.4 2.7-24-2-30-11.7-1.1-24.6 2.5-35.4-2.2l-59.6-29.8h-96l-33-32c-12 1.6-26-3.4-36.5 3l-91.5 61-32-64-33 32c-2-10.6 4-26-3-33.5l-61-30.5c-11.3 10.8-21.7 22.6-33.5 32.7q-64 31.9-128 63.5l-95.5 31.8-64-32c-11.3 10.8-21.7 22.6-33.5 32.8l-63.5 32.2c-10 1.3-25.3-2.6-32 2-.7 9.3 1.4 23-1 29.5-21.1-10.7-42.4-21-63.4-31.9l-31.6-32.6v65l-65 32c-21.5.1-43-.2-64.5.2l-96.5 31.8-32 64c-1 11.7 2.1 24.4-1.7 35.5l-30.3 61.5c9.5.7 25.5-1.3 31 1l-31 31c-1 10.2 2 24.3-1.5 32h-94.5l-65 64c-11.3 1.8-25.7-3.7-35 3l-61 62c-10 1.3-25.3-2.6-32 2v62l-97 32c-11.7 1-24.3-2.1-35.5 1.7l-60.5 30.3-97-32-64 32-32-64h-193l-32 32h-64c-.7 9.5 1.4 25.6-1 31l-32-31-32 64-32-32-32 65c-.7 9.5 1.4 25.5-1 31-11-10.5-21-22-32.5-31.8l-62.5-32.2c-.7 9.8 1.4 26.3-1 32l-32-32c-1.3 10.4 2.6 26-2 33-9.4 1.3-24-2.6-30 2v30c-.7-9.5 1.3-25.5-1-31l-31 31h-64v-30c-1 9.5 2 23-1.5 30h-95.5a3812 3812 0 0 1-64-65c-.7 9.8 1.3 26.3-1 32l-31-32-32 33-32-33c-.7 9.8 1.4 26.3-1 32l-32-32c-10.8 21.8-21.3 43.7-32.4 65.4l-63.6 63.6-64-32c-1-10.2 2-24.4-1.5-32h-95.5l-32-32c-1.3 10 2.6 25.3-2 32-8.9-.7-24.2 1.3-29-1l31-31c-10-1.3-25.4 2.7-32-2-2-11.4 4.5-26.3-4-35l-28-28-65 32c-1.3-10 2.6-25.3-2-32-9.4-1.3-24 2.6-30-2-1-9.5 2-23-1.5-30h-94.5c.7-9.5-1.3-25.5 1-31l31 31c-2-10.6 4-26-3-33.5l-61-30.5c-1.3-10 2.7-25.4-2-32-9.7 1.3-24.6-2.6-31 2-.7 8.9 1.3 24.2-1 29l-31-31c-.7 9.5 1.3 25.5-1 31l-31-31 32-32-32 32v-65c-10-1.3-25.3 2.6-32-2-1.3-9.4 2.6-24-2-30-11-2-25.6 4.4-34-4l-28-28 32-32-32-32c-1.3 10 2.7 25.4-2 32h-63c-.7-9.5 1.3-25.5-1-31l-31 31 32-32-64-32 32-33c-12.3.9-25.1-1.9-37 1.7l-91 31.3-33-33-32 33c10 1.3 25.3-2.6 32 2-.7 9.3 1.3 23-1 29.5l-63-31.5v-33c-1.3 10.4 2.6 26-2 33h-62v-97c-11.7-1-24.4 2.1-35.5-1.7-20.6-10.3-41.4-20.2-61.9-30.7l-31.6-31.6-32 32c-10-1.3-25.3 2.6-32-2-2-10 3.9-24.6-3-31.5l-61-30.5-65 32-32-32h-128c-1.3-10 2.7-25.4-2-32-9.7-1.3-24.8 2.7-31-2-2.2-12.3 5.3-28.6-6-37l-90-90-32 32c-11.3 1.8-25.7-3.7-35 3l-29 29c-.7-9.5 1.4-25.6-1-31l-32 31c-1.3-10 2.6-25.3-2-32h-62v-64h-64l-32-32c-1.4-11 2.7-25.2-2-34l-63-31c9.5-.7 25.5 1.3 31-1l-63-63c-.7 9.5 1.3 25.5-1 31l-31-31c-10.2-1-24.3 2-32-1.5v-94.5c-10 1.3-25.3-2.6-32 2-.7 8.9 1.4 24.2-1 29l-32-31v-65c9.8-.7 26.3 1.3 32-1l-32-31c9.8-.7 26.3 1.3 32-1l-32-31 33-64c-9.8-.7-26.3 1.4-32-1l32-32-65 33c-31.4-32.9-63.9-64.8-96-97v64c-32-32.3-64.6-64-97-96l-32-64v96l-64-32v-64l-64 64-32-64-33 64-32-64-64 64-32-64-65 64-32-64c-11.3-1.8-25.7 3.7-35-3l-29-29c-11.3-1.8-25.8 3.8-35-3l-29-30c-11.7 1.8-26.5-3.8-36 3l-29 30-32-65-32 32v33l-96-97 32-64h-97l-32 32-32-32 32-32c-11.3 1.8-25.7-3.7-35 3l-29 29c-10.8-11.3-22.6-21.7-32.7-33.5l-31.3-63.5-33 33-64-97-32 32 32 32-64 33-32-33 32-32-65 32c1.3-10-2.7-25.4 2-32 11.4-2 26.3 4.5 35-4l28-28h-129l-64-32v64l-65 32-64-96 32-32h-128l-32-32-33 64v-97c-11.3 1.8-25.8-3.8-35 3l-29 30v-65l-32 32v-128l-32 32v-64h64l-64-65c-21.4-10.8-43-21.3-64.4-32.4l-64.6-63.6c-10 .7-24.3-1.3-31.5 1l31.5 63c-10.6-2-26 4-33.5-3l-30.5-61h-64l-65 32-96-32-32-32-33 32c-11.3 1.8-25.7-3.7-35 3l-29 29c-10 1.3-25.3-2.6-32 2v62l-32-32c-11.7 1-24.4-2.1-35.5 1.7l-61.5 30.3-32-32-32 32-32-32v129l-64-32-32 32c-10.3.7-25-1.3-32.5 1l32.5 63-65-32c-1.3 10 2.6 25.3-2 32h-62l-32-32h-64v64l-33-32c1 11.7-2.2 24.4 1.8 35.5l31.2 61.5-65-33-32 33h30.5-94.5c1.8 11.4-3.7 25.7 3 35l29 29-32 64c-11.4 1.8-25.7-3.7-35 3l-30 29-32-32c-11.3 1.8-25.7-3.7-35 3l-29 29c-1.3 10.4 2.6 26-2 33h-62c-.7 9.5 1.4 25.6-1 31l-64-64c.7-9.5-1.3-25.5 1-31l31 31c-2-10.6 4-26-3-33.5l-61-30.5c-1.3 10 2.6 25.3-2 32-9.4 1.3-24-2.6-30 2-1 9.8 2 22.5-1.5 30.5l-94.5 32.5c-1 11.7 2.2 24.4-1.8 35.5l-31.2 60.5h-64l-32 64-32-32c-21.4 10.8-43 21.3-64.4 32.4l-64.6 64.6-32-33v-64l-64 32v-64c-10 1.3-25.3-2.6-32 2v30l-97-64c-10-1.3-25.3 2.6-32-2v-62l-32 64-32-32 32 64c-10 1.3-25.3-2.6-32 2-1.3 9.4 2.7 24-2 30-11.4 2-26.3-4.5-35 4l-28 28-32-32-96 64-97-32c-10 .7-24.3-1.4-31.5 1l31.5 64h-193c-1.3-10.4 2.6-26-2-33h-62c-.7 10.3 1.4 25-1 32.5-21.1-11-42.4-21.6-63.4-32.9l-31.6-31.6c1.8 11.4-3.7 25.7 3 35l29 30-32 32-33-65c-9.5.7-25.5-1.4-31 1l31 32-32 32-64-32c-1.8-11.7 3.7-26.4-3-36l-29-29-65 32 33-32h-129l-32-32h-64v64h-97v65l-64 32 32 32c-1.8 11 3.7 25.7-3 34q-46.8 31-93.4 62.4l-32.6 32.6 33 64c-12-1-25 2.1-36.5-1.7l-60.5-30.3-129 32v96l-64 33 64 32c11.7 1.8 26.4-3.7 36 3l29 29-32 32c-11.7 1.8-26.4-3.7-36 3l-29 29 65 32c-1.8 11.4 3.8 25.8-3 35l-30 30h-64l-32 32 32 64-32 32-32-32-32 64 32 33-32 64c-10.5 1-23.8-2-32.5 1.5l-32.5 94.5-64 32-64-32c-22.5 10.9-44.7 22.5-67.5 32.9l-93.5 32.1-64 96h-65l-32 64c-10 .7-24.3-1.4-31.5 1l31.5 64-32 32c1.8 11.4-3.7 25.7 3 35l29 29 65-32c-1.4 11.5 2.9 24.8-2.3 35l-94.7 126-32 96-64 65h-65l-32 64c-1.3 10 2.6 25.3-2 32h-62l-32 193c-11.4-1.8-25.7 3.7-35-3l-30-29-32 32h-64l-32 64-65 32v97h-96c-.7 10 1.4 24.3-1 31.5l-128-63.5-64 64h-96l-97 32h-128c-.7 9.5 1.4 25.6-1 31l-32-31-64 64-32-32 32 65h64c-1 10.2 2 24.3-1.5 32h-94.5l-64 32-97-32v64l-32-32 32-32c-11.3 1.8-25.7-3.7-35 3l-29 29-32-32c-11.3 10.8-21.7 22.6-33.5 32.7l-63.5 31.3c-1.3 10 2.6 25.3-2 32h-62c-.7 9.5 1.3 25.5-1 31l-31-31-32 32q-33-31.5-65-64c-10.9 1.8-25.8-3.7-34 3l-62 94-64-33c-1.8 11.7 3.8 26.5-3 36l-30 29c-.7 10 1.3 24.3-1 31.5l-63-31.5-64 96h-64l32 97-32 64-65-32-64-97v-96l-161 32-129-64 33-65c-32.4-21.5-65-42.7-97.4-64.4l-31.6-31.6h-64l-32-97-129 33c-.9-12.6 1.9-25.8-1.7-38l-30.3-91c11.3-1.8 25.7 3.7 35-3l29-29-64-32-32-65c9.5-.7 25.5 1.4 31-1-10.5-11-22-21-31.7-32.5-10.6-21-20.8-42-31.7-62.9l-64.6-63.6c-10 1.3-25.3-2.6-32 2-1 9.8 2 22.5-1.5 30.5l-94.5 31.5c-1.3-10 2.7-25.4-2-32-9.7-1.3-24.6 2.6-31-2-2-10 3.9-24.6-3-31.6l-61-31.4 32-32v-96q32-32.5 65-64c-10.3-1.3-26 2.7-33-2-2-11.4 4.5-26.3-4-35l-28-28v-96c-10-1.3-25.3 2.7-32-2v-63c-10.3-1.3-24.8 2.6-32.5-2q-15.9-63.2-31.5-126.5v-128.5l-65-32v-129l-64-64-64 32-64 129-611-547-450 290-97 32v-64l-32 32-32-32c-11.4-1.8-25.8 3.8-35-3l-30-30c-11.7-1-24.3 2.1-35.5-1.7l-60.5-30.3v-128l-64-65h-65l-64 65-161-65v-160l-32-33-64 33a3812 3812 0 0 0-64-65l32-96-161 32-96-32 32-65-32-64h-129c-1.3-10 2.6-25.3-2-32h-62c-.7 10 1.4 24.3-1 31.5l-64-31.5c-1.3-10 2.6-25.3-2-32-9.4-1.3-24 2.6-30-2v-62l-64-33v-128l-65 32-32-32c1.8-11.4-3.7-25.7 3-35l29-29-64-33c-2-10.6 4-26-3-33.5-20.5-10.3-41-20.3-61.4-30.9l-31.6-31.6 32-32-97-65c-1.3-10 2.6-25.3-2-32-11-2.5-28 5.8-34-6l-60-90c-10-1.3-25.3 2.6-32-2v-62c-12-1.6-26 3.4-36.5-3l-92.5-62-32-257 64-96-32-33c-12.3.9-25.1-1.9-37 1.7l-91 31.3c-10.4-1.3-26 2.6-33-2v-127c-10-1.3-25.3 2.6-32-2v-127l65-64h-65v-64h65c-1.3-10 2.7-25.4-2-32h-63v-97c10.8-11.2 22.6-21.7 32.8-33.5l32.2-62.5h-65l-64-65c-1.3-10 2.6-25.3-2-32h-62v-64l32-64-32-33-33 33-32-33 32-64-32-32c10.8-11.3 22.6-21.7 32.8-33.5l32.2-63.5h-33l33-128c-9.8-.7-26.3 1.3-32-1l32-31-33-32 33-33c-9.8-.7-26.3 1.3-32-1l32-31-65-96v-161h65c-.1-21.5.2-43-.2-64.5-11.5-33.1-22-66.6-34.3-99.4l-30.5-61.1c10.6-43.2 21.6-86.3 32-129.5.3-22-.6-44.1.4-66q16.5-95.6 32.6-191v-63.5l128-290c10.8-11.2 22.6-21.7 32.8-33.5l32.2-62.5 128-64 32-97 129-64 64-64 65-129v-64c-22-33.4-45-66.2-66.5-100l-62.5-125 64-161c1.8-11.4-3.7-25.7 3-35l29-30 33 33c11.6-11.4 22.2-24 34.4-34.6l93.6-62.4-32-32q16-80.7 32-161.5v-95.5l-64-97v-128l-97 32h-128l-97-64-32 193-64 64-129 64q-836.8-48-1673.6-96l-3246.5-129-3310.9-64c-54.4-631.4-109.2-1262.7-163.4-1894.2L70852 102954l-1543-1800 290.5-32H70820l-128-2348-97 33-128-65-32-160-33-65c10.3-.7 25 1.3 32.5-1l-32.5-63v-64l-32-33c9.5-.7 25.5 1.3 31-1l-31-31v-64l-32-32v-65l-96-32c.7-9.5-1.3-25.5 1-31l31 31v-64l-97-64 32-32c-10-1.3-25.3 2.7-32-2v-63l-32-32h-64l32-32c-1.3-10 2.6-25.3-2-32-9.4-1.3-24 2.6-30-2-1.3-9.4 2.6-24-2-30-8.9-.7-24.2 1.3-29-1l31-31v-129l32 32v-129l-32 33c-.7-9.8 1.3-26.3-1-32l-31 32v-65l-33 32v-64l-32 32-32-32 32-32-64-32c-10.8-21.8-21.3-43.7-32.4-65.4l-31.6-31.6c-1.8-11.3 3.7-25.7-3-35l-29-29v-64l-33-32 33-33-33-64c1.4-10.6-2.7-24.5 2-33l63-31c-1.4-10.6 2.7-24.5-2-33l-63-31v-65l-32-32v-129h-96v-96l64-64c-1-12 2.1-25-1.7-36.5l-30.3-60.5 64-32-64-64 64-32-32-33c1.8-11.3-3.7-25.7 3-35l29-29c11.7-1 24.4 2.1 35.5-1.7 20.6-10.3 41.4-20.2 61.9-30.7l95.6-95.6c1-12-2.1-25 1.8-36.5 10.2-20.3 20-40.7 30.6-60.9l64.6-63.6c1-11.7-2.1-24.4 1.7-35.5l30.3-61.5v-64l32-32v30c1.3-9.4-2.6-24 2-30h62c-1.8-11.3 3.7-25.7-3-35l-29-29h-129l-64-97 32 32 32-64c9.8-.7 26.3 1.3 32-1l-32-31c-1.3-10 2.6-25.3-2-32h-62l-64-33c-9.5.7-25.5-1.4-31 1l31 32c-10.2-.8-23.9 1.7-32-1.3V95302l-32-64 32-33c-1.3-10 2.7-25.3-2-32h-63l-32 32c-.7 9.8 1.3 26.3-1 32l-31-32 64-64v-64l33-32h-161l96-97c-.7-10 1.3-24.3-1-31.5l-63 31.5-32-32c1-10.2-2-24.3 1.5-32h94.5l32-32-64-32c1.3-10.4-2.6-26 2-33h62l-32-32h-96l-32-32-32 32-33-32h-96l64-64-32-32h-96v64c-11-1.3-25.1 2.7-34-2l-31-62h-64l32-65h-64l32-32h-64l-32-32-33 32c-10-1.3-25.3 2.6-32-2v-62l-32 32v-64l-64-65-32 65c-11.7 1.8-26.4-3.7-36 3l-29 29c-10-1.3-25.3 2.6-32-2v-30c-.7 10 1.4 24.3-1 31.5-21.1-10.7-42.4-21-63.4-31.9l-63.6-64.6-33-96-32 32v64l-64-64v-64l-32-32c1.3-10-2.6-25.3 2-32 9.4-1.3 24 2.7 30-2 1.3-9.7-2.6-24.6 2-31 11-2 25.6 4.5 34-4l28-28-32-32h30c-8.9-.7-24.2 1.3-29-1l31-31c9.5-.7 25.5 1.3 31-1l-31-31 32-32v-65l65-32c1.3-10-2.6-25.3 2-32 9.4-1.3 24 2.6 30-2 1.3-9.4-2.6-24 2-30h62l32-65 32 33v-65l33-32c1-10.5-2-23.8 1.5-32.5l94.5-31.5 64 32c11.7-1.8 26.4 3.7 36-3l29-29c12-1.6 26 3.4 36.5-3q46-30.5 91.9-61.4l31.6-32.6c10.4-1.3 26 2.6 33-2 1.3-9.4-2.6-24 2-30h62v-96l129-97 96-32c.7 9.5-1.4 25.5 1 31 11-10.5 21-22 32.5-31.7l62.5-31.3 33 32 128-32c1.5-11.1-3-24.7 2.3-34.3l94.7-94.7c10-1.3 25.3 2.6 32-2 1.3-9.4-2.6-24 2-30h62l32-64v-129l65-32-65-64v-97c10-1.3 25.3 2.6 32-2 1.3-9.4-2.7-24 2-30 10-.8 23.2 1.7 31-1.2V92505l-33-65c11-1.3 25.1 2.7 34-2l31-62v-64c.7 9.5-1.3 25.5 1 31l31-31v-97h64l32-96c10.4-1.3 26 2.6 33-2v-127c10-1.3 25.3 2.6 32-2v-62l64-97v-96h64l129-161-64-32 32-64-32-33v-64l-33-32 33-32v-64h64l64-97c10.6-2 26 4 33.5-3l30.5-61v-65h65l32-32c10.2-1 24.3 2 32-1.5v-94.5c10.8-11.3 22.6-21.7 32.7-33.5l31.3-63.5 33-32c1.8-11.3-3.7-25.7 3-35l29-29 96 32 32-32h65l32 32 32-64h64l65-193 96-97 32-96-32-225q16-80.7 32-161.5V89771l-64-160v-97l64-160v-129l64-97v-64l-32-64 65-65 64-32c10.5-1 23.8 2 32.5-1.5l31.5-94.5v-64c42-44 86.3-85.7 129-129l129-32 96-129 96-32v-64c10.4-1.3 26 2.6 33-2 1-9.5-2-23 1.5-30h94.5l32-33c.7 10.3-1.3 25 1 32.5l63-32.5c11.6 11.1 22.3 23.3 34.5 33.7l62.5 31.3c21.4-10.8 43-21.3 64.4-32.4 10.6-11.4 22.3-22.1 32.3-34l31.3-62.6-32-161 65-64v-64l32-32c10-1.3 25.3 2.7 32-2v-63l64-64c1.8-11.3-3.7-25.7 3-35l62-61 96-33-547-450c-10-1.3-25.3 2.6-32-2v-62l-32-64c-.9-12.6 1.9-25.8-1.7-38l-30.3-91v-64l32-32v-290l-64-96c-10.5-1-23.9 2-32.5-1.5l-31.5-95.5-97-64c-10-1.3-25.3 2.6-32-2-1.3-9.4 2.6-24-2-30-9.4-1.3-24 2.6-30-2-2-11.1 4.4-25.6-4-34.1l-28-28.9v-64h-65c21.8-42.3 43.7-84.6 64.5-127.3-.2-11 2.9-25.7-1.5-34.7l-63-31h65c-1.8-11.3 3.7-25.7-3-35l-29-29 32-32-97-65c10-1.3 25.3 2.6 32-2v-62l-32-64 32-64-32-33c-11-1.8-25.7 3.7-34-3l-62-93-65 32-32-32-32 32-32-32-32 32q-64.7-31.7-129-64v-65l-32-32c-1.3-10 2.6-25.3-2-32-9.4-1.3-24 2.6-30-2-1.3-9.4 2.6-24-2-30-9.4 1.3-24-2.6-30 2v30-96l-32-32-33 32 65-32-32-65c9.5-.7 25.5 1.3 31-1l-31-31 32-32-32-32c10-1.3 25.3 2.6 32-2-1.3-9.4 2.7-24-2-30h-63l33-32c-1.3-10.3 2.7-26-2-33-9.7-1.3-24.6 2.6-31-2 1.3-9.4-2.7-24 2-30 9.7-1.3 24.6 2.6 31-2v-62c-10.4-1.3-26 2.6-33-2q.2-31.2-.2-62.5l-31.8-96.5 32-32-64-32 32-32v-97l-32-32c10.2-1 24.3 2 32-1.5V84241c9.5-.7 25.5 1.3 31-1l-31-31 32-64c-9.5-.7-25.5 1.3-31-1l31-31-32-65 32-32-32-32 32-32h65l-32-32h64l-32-33c9.5-.7 25.5 1.3 31-1l-31-31 32-32c.7 9.5-1.3 25.5 1 31l31-31c10-1.3 25.3 2.6 32-2 1-9.8-2-22.5 1.5-30.5l95.5-31.5c1.6-12-3.4-26 3-36.6q30.6-46.5 61.4-92.8l63.6-63.6v-64l32 32c25-23.7 49-48.3 73-73 8.5-8.3 16.5-17.1 25.5-24.7l62.5-31.3 65-161h96l64-64c11.4-1.8 25.7 3.7 35-3l30-29c1-11.7-2.1-24.4 1.7-35.5l30.3-61.5v-96l-32-96 32-33c-9.5-.7-25.5 1.3-31-1l31-31c-.1-21.5.2-43-.2-64.5l-31.8-96.5-97-32-64-64v-64l-32-65v-64l-65-96v-161c11.7-1.8 26.4 3.7 36-3l61-61c-10-1.3-25.4 2.7-32-2-1.3-9.7 2.7-24.7-2-31h-63l-32-64c-1.8-11.3 3.7-25.7-3-35l-29-29c1.3-10-2.6-25.3 2-32h62l-32-65 32 33 33-97-65-32c-1.3 10 2.6 25.3-2 32h-126c-.3-9.6.7-25-.5-31l-32.5 63c-10.6-2-26 4-33.5-3l-30.5-61-32 32-129 32-32-128-32-33-32 33c-1.3 10 2.6 25.3-2 32h-62l-33-32-32 32-64-32-64 32-65-65-96 33c-10.6 2-26-4-33.5 3l-30.5 61-65-32c-11.7-1-24.4 2.1-35.5-1.7q-63-31.4-125.5-63.3h-160l-32-32v-128h-65l-32-33-32 33c-12 2-27.5-4.7-36.5 4.5l-92.5 91.5-64-32 32 32-32 97c9.5.7 25.5-1.3 31 1l-31 31-96-65h-97l-32-32c-1.8-11.3 3.7-25.7-3-35l-29-29c-1.3-10 2.7-25.3-2-32h-63l33-97c-11.6-10.8-22.4-22.6-34.5-32.7l-62.5-31.3-32 32h-32l32-128c-11.3-1.8-25.8 3.8-35-3l-29-30v-96q-2316 .2-4632.3-.1l-576.7-31.9c1-10.2-2-24.3 1.5-32h94.5v-97l33-32c.1-21.5-.2-43 .2-64.5l31.8-96.5v-64c-10-1.3-25.3 2.6-32-2v-62l-33-33c10.5-1 25 2 33-1.5V80351l64-33v-96l32-64-32-65 64-64c1.8 11.3-3.7 25.7 3 35l29 29c1.3 10.4-2.7 26 2 33h63l-33-65 33-96-33-32v-65l-32-64c1.4-10.6-2.7-24.5 2-33l63-31c-1.3-10.3 2.7-26-2-33-11.4-2-26.3 4.5-35-4l-60-60v-96l32-32c10.2-1 24.3 2 32-1.5V79322l-32-32 65-97-33-64 33-32-33-97 65-64v-65l-65-64v-193l65-128-32-32 32-33 32-160h-64c1.8-11.7-3.7-26.4 3-36l29-29c-21.8-10.8-43.7-21.3-65.4-32.4l-31.6-31.6c-10.6-2-26 4-33.5-3l-30.5-61v-129c-10.5-1-23.8 2-32.5-1.5l-31.5-94.5h-97l-32-65c-10.6-2-26 4-33.5-3l-30.5-61 64-32q-59.9-91.6-121.5-181.8c-11.2-15.7-18.3-33.8-27.3-50.8l-12.2-24.4v-193l129-32-32-33v-96l-97-32c-1-10.2 2-24.3-1.5-32h-94.5c.4-15.7-1.5-31.7 2.8-47 9.7-48.8 19.7-97.6 29.2-146.5v-64.5l32-64v-64c9.8-1 25.2 2 31.5-1.5l-31.5-95.5 32-32c1.8-10.9-3.7-25.8 3-34l94-62 64-161c2-10.6-4-26 3-33.5l61-30.5v-97l-32-32 32-64c10.4-1.3 26 2.6 33-2-2-11.1 4.5-25.8-4.1-34.1l-28.9-28.9 33-32v-128l64-65v-128l-32-97v-96l-65-32 33-65c-1.3-10.6 2.7-24.5-2-33a14888 14888 0 0 1-127-63l96-129v-96l-128-64h-65l-32-33 129-64 32 32h64l33-64 96-32c-.1-21.8.2-43.7-.2-65.5l-31.8-95.5h64l64-129 33-32c-10.4-1.3-26 2.6-33-2-.7-8.9 1.3-24.2-1-29l-31 31c-10.6-2-26 4-33.5-3l-30.5-61q16-80.7 32-161.5c-1.3-9.9 2.6-25-2-31.5-9.4-1.3-24 2.6-30-2-1.3-9.4 2.6-24-2-30-9.4-1.3-24 2.6-30-2v-127c-10-1.3-25.3 2.6-32-2v-62l-65 32-96-96c1.3-10.7-2.6-25.4 2-33.5l127-31.5-193-96q-33-31.5-65-64c-1.8-11.7 3.7-26.4-3-36l-29-29 97-96c10-1.3 25.3 2.7 32-2v-63l32-32-64-96 64-32c-21.4-10.8-43-21.3-64.4-32.4l-64.6-64.6h-96l-65-32c-.7-10 1.3-24.3-1-31.5l-63 31.5v-129c10.8-21.4 21.3-43 32.4-64.4l31.6-31.6-32-64 32-97c-.7-10 1.3-24.3-1-31.5l-63 31.5z" style="fill:#999;stroke:#fff;stroke-width:282.23678589;stroke-miterlimit:4;stroke-dasharray:none;stroke-opacity:1"/><path d="m81302 122857 708.3-1479.6 481.7-1060.4h354l64-96h-32l32-65c-32.2-32.1-64.1-64.6-97-96h-32v-386h-225l997-3215 482-32v-33l-64-32-32-32v-64l-32-32-32 32-65-32v32l-353-322c-11.3-44.5-23.2-88.8-34.2-133.4l-62.8-284.6-579-1093h193v-96l-193-161 65-193-65-64h-32l-64-129h-32l-65-161-64-32-32-64 32-65v-96l-32 32v-32l32-64h-64 32l32-65-64 33v-33l32-32v-32l-64-32v-32c11.3.2 22.7-.5 34 .4l159 31.6 64-129 64-32 64 64v129l65 32v129l32 128h32v65h32v96l32 32v33h33q-33 31.5-65 64v96l-32 32 64 33v32h33v32l96-32v-32h32l65 64 32 64 32 32h-32l32 65 64 32-32 32h-32l32 96v33l129-33 32 97h64c11 10.8 21.7 22.2 33 32.7l96 63.3-33 65 129 64 161-32v96l64 97 65 32 32-64-32-97h64l64-96 64 32v-32l33-32v-33l64 33 64-97h32q32 32.5 65 64l32-32 32 32v-32h64v-32l65-32 32-32 32 32 32-32h32l-32 32 32 32v-64l97 32 64-32h96v-32h-64l-32-65 32 32 64-64 33 32v-32h128l97-32h96l64-64 129 64v-32h96v-97l65-32 32-64h64l32-32 33 32h32l32-193h64v-32l32-64h65l64-65 32-96 97-129v-32l-65 32-32-32v-32l32-32-32-65h32l32-64h65l64-96 96.3-33.1 64.7-31.9 64 32 64-32 33-96h32l32-64-32-33 32-64 32 32 32-32-32-64 32-32h64l33-33v-32l-65-32 32-32h33l32-32-32-32h-33l-64-32 64-33v-96l129-32 64 32h33l-33-64c11.4-11.2 22.4-22.8 34-33.7l95-63.3v-32l-32-32 64-32v-65h97v-64h64l32 32h129l-33 32 65-32 32 32v33l64 32 32-32-32-33h32l33 65 32-32-32-33v-32q16 16.2 32.3 32.2l63.7 32.8v-33h64v33h193l-32-65c11 .2 22.1-.5 33 .4l96 31.6 96-64 32 32 32-32h33v-32h32l-32-64 32 32 32-64v64h32l97 64v-32h32v64l64-32v64l32 33 65-65 64-32 32 32 32-64h64l33-64v-32l96-33v-32h32v-32l64 32v32l-32-32v32l65 65v-32h64v-33l32-32h32l32 32 33-32h32l32-64-32-32v-32h96-32l32-33 65 33-33-65v-32l33 32v-64h64l32 32h64v-32l65 32-33-64h33l32-32 64 32v-129l32 32 32-32 32 32 65-32h32l32 32v-64h32l32-32h32l33-32 32 32 96 32 65-32h64l32 64h32l-32-64h32l65 64 64 32 64 65h-64v64l32-32v128l32-32v65l32-33h32v97l33-64 32 32h128l-32 32 64 96 65-32v-64l64 32h129l-32 32h-33v32l65-32-32 32 32 33 64-33-32-32 32-32 64 97 33-33 32 65 32 32 32-32h32l-32 32 32 32 32-32h97l-32 64 96 97v-33l32-32 32 65 32-33h33l32 33h32l32 32h32l32 64 65-64 32 64 64-64 32 64 33-64 32 64 64-64v64l64 32v-96l32 64c32.4 32 65 63.7 97 96v-64c32.1 32.2 64.6 64.1 96 97l65-33-33 33h33l-33 64 33 32h-33l33 32h-33v65l33 32v-32h32v96h32l32 32v-32l64 64h-32l65 32v33l32 32h64v64h64v32l33-32v32l32-32h32l32-32 96 96v33h33v32h128l32 32 65-32 64 32v32h32l32-32q16 16.2 32.3 32.1l64.7 31.9h32v97h64v-33 33l64 32v-32h-32l32-33 33 33 96-33h32l-32 33 64 32-32 32 32-32v32h65v-32l32 32-32 32 32 32h32v32h32v65l32-32-32 32 32 32v-32l32 32v-32h33v32l64 32v32l-32-32v32h96v32h32v32l65-32 32 32v33h32l-32 32h32v-32l32 32h97v32l64 32 64-64 32-65 33 33v-33l32 33 32-33 32 33v-33q31.5 33 64 65h97v-32 32h64l32-32v32-32h32v-33l33 33v-33l64 33 32 32v-32l32-65 32 32 32-64 33 32v-32h64l32-32h193l32 64 64-32 97 32 64-32c11-.2 22.1.5 33-.4l96-31.6v-64h32l64-65h32l65-64h96v-32l32-32h-32l32-65v-32l32-64 97-32h64l65-32v-65c10.8 11 21.4 22.3 32.3 33.1l63.7 31.9v-32h32l65-33 32-32 64 32 96.3-32.1 128.7-63.9 32-32 64 32v32l33-32 32 64 96-64h32l33 32h96l64 32h33v32h32l-32 65h32v32l32 64 161 32 32 32 32-32 32 32v33l64 64 97 32v64l-32-32v65l32 32-32 32h32v32h32l-32 96-32 33c21.7 11 43.7 21.6 65.3 32.9l94.7 63.1v-32 32h33l64 32h161l32-32h96q16-16.2 32.3-32.1l64.7-31.9 32-65h64l32-32h65l32-32h32q16-16.2 32.3-32.1l63.7-31.9 32 32h65l32 32 32-32 32 64 65-32 32 32v-32 32l32-32h64l65 32 32-32-32-32 32-64v-32l96-97v-96l32-65v-32h-32v-128l32 32v-32h32q32.9-64.3 65-129l128-32h32l33 32 32-32h32v-32l96-33c44.8-43 88.2-87.5 132.3-131.3l189.7-189.7 32-64 32-33 193-64-32-96 32-97 32-32 32-96 65-32h96q32.6-48.7 65.2-97.2l31.8-31.8v-64h64l64-65 129-32 64 32v65l65 32-97 1993h-32l-64 32-65-32-64 65h-257l-32 32q-81.4 32.3-162.6 64.8l-62.4 31.2v97q-16.5 16.2-33.3 32.1l-63.7 31.9v32q-16.2 16-32.1 32.3l-63.9 128.7v32q-32.1 64.6-65 128.6c-10.7 14-22 27.7-33 41.6l-95 118.8v65q-16.2 16-32.2 32.3l-32.8 63.7v64l33 65-33 32h33l-33 64 33 32v-32h32l32-32 32 32h97v-32h96l32 64h32l-32-32h32v64l65-32 32 32v33l32-33v33h32v32h32l32 32v64l32-32h33v64h32v33h64l-32 32h32v32l64 64 161-32h32l33 32 32-32h32v32h64l32 65 32-65q32.5-31.3 64.2-63.1c6-4.1 13-6.6 19.2-10.1l45.6-22.8v-32h129l32 32v-32h64v32l32 64 97 32v32h64l32-32h32v65h65l64 32h64l32 32h33q16 16.2 32.3 32.1l63.7 31.9 32-32h32l32-64 33-32v-97h32v-32l32 32v-32l32-32v32l32-32v32h32v-32l33 64 32-32v32h32l96 64 97-32 96 32h32l33-32 128-32q96.6 16 193.3 32.1l96.7 31.9h32q59.2 30.9 119 60.5 8.7 5.8 19 4.5h22l33 64 96 32h482l-64 64h-161c-10.8 11-21.4 22.3-32.3 33.1l-63.7 31.9-32 64c10.7 32.4 21.8 64.6 32.2 97l31.8 192v97l96 289v129l33 128v193l160 161h129l64 32h32l33-128 160-97 161-32h129l225 64h257l96.3 33.1c22 11 44.2 21.5 66 32.8l94.7 63.1v32l32 32-32 97-96 96-65 129-192 32h-129l-32 32c-.2 11.1.4 22.3-.3 33.3l-31.7 127.7-97 64c-10.8 22.2-22 44.1-32.5 66.4l-31.5 94.6-129 32-96 129v32l32 64v65l64 64 32 64-32 64h97l32 33v96l193 32 128 65v32h33l64 32 64-32 129 64h96l65 32h96l64 32 161-64c11.3.2 22.7-.5 34 .4l159 31.6 32 32 64-32h129c11-10.8 21.7-22.2 33-32.7q48.2-31.8 96.3-63.4l63.7-31.9v-33h96l65 33v32l96.3 32.1 128.7 63.9h128l97 193v32l64 32v65l64 32v32l97 96v33h64l-32 32h97v64h-33 65v32h32v32c35 18.1 70.2 36.3 105.7 53.5l23.3 11.5h64v-65h96l65 33v-33l64 65h128l65 32v32l32-32v32l64-32h32v32h33v32l32 32v65h32l64 64h32l33 32h32l64 32v-32l32 32v65l32 32h-32l64 64h33-33v32h33l32 32h64l32-32 32 32h32l33 32v33-33l64 33h32l32 32-32 32v32c32.2-32.1 64.1-64.6 97-96v32h64l32 32h64l-32-64q32 32.5 65 64h64v-32l32 32h64v32h32l33 64h64l32 65v32h32l32 64h32v32l65 65h32v-33h64l-32 33v32h97l128 64h-32l64 32h-32l65 32 32-32 64 65h96-32v32h32v32l33-32 32 64h32l32-32 32 32h-32l64 64 32-32 161 97 65-33h32l64 33h64v32l65-32 32-33h64v33h97l32 32h96l97 32h32v32l32 32h64l32-32 65 64 32-32h32l32 32h97l32 32h32l-32 33h32v32h32l32 32h97v64l32 32v33l96-33 65 33h128v96h32q33 31.5 65 64l32-32v64l96 33 32 32 33-32h64v-33h64l32 33 33-33v33h64l32 64 64 32h129l64 64h65l32 33h96v32l97 64v32l32-32 96 96v65h32l32 96 33 32v33l-65 32 97 32 32-32 32 32-32 32h96v96h97c42.7 43.3 85 87 129 129v32l-65 32-64 65v64l161 225 32 64v161h-97l-96-32h-32l-65 32c-10.8 22-22 43.6-32.6 65.6l-95.4 256.4q-16.2 16-32.2 32.3l-64.8 127.7-32 161-32 32v33l96 96-64 96 32 65v32l65 64v290c11 21.7 21.6 43.7 32.9 65.3l63.1 94.7v97l-96 225 64 161v128l-32 97-32 32q32.2 48 64.1 96.3l31.9 64.7v64q-65 129.3-129.6 258.5-48 112.3-95.8 224.6l-63.7 192.2-31.9 64.7-161 128-64 32-65 65-64 32c-11 .2-22.1-.5-33 .4-32.7 10.6-65.3 21.7-98 32.1l-126 31.5h-193l-290 64c-48.7 33-97.3 66.2-146.5 98.3l-46.5 30.7h-32l-32 32-32 129-64 32-161 289v32q-32.2 16.4-64.3 33.2-64.9 48.1-129.4 96.5-31.8 31.7-63.5 63.6l-160.8 257.7-32 96-97 96-225 129-64 64v33l-64 64-161 354-32 160 64 97v64.3l-32 160.7v161l32 96 64 64-32 225-32 65-193 128h-225l-64 32-129 161-32 97-64 96v97l-65 160-96 33-32 64c-11 .2-22.1-.5-33 .4l-96 31.6h-129q-16.2 16-32.1 32.3l-31.9 63.7 32 161-32 65c10.8 11 22.1 21.7 32.7 33l64.3 95 32 193 32 32c-11 54.7-21.6 109.4-32.7 164l-31.3 126v96c-15.5 14.7-30.2 30.4-47 43.7l-178 149.3c-11.3 43.7-22.2 87.5-33.7 131.1q-32 95.4-63.3 190.9-48.1 48-96.2 96.3l-65 96q-16 16.4-32.1 32.9l-127.7 63.8h-97.3l-192.7-32h-32l-64 32c-22 43-43.6 86.2-65.7 129l-63.3 96 32 64 161 129v96l64 129v129l-128 225-65 64-32 64-193 65-96 64-97 225v64l-32 97-225 160-64 97-64 32v32h-65l-160 193c-11.9 35.4-24.4 70.6-35.8 106.1l-125.2 408.9-161 225c-32.2 32.1-64.1 64.5-97 96l-32 97-225 160c-40 41.8-81.4 82.2-122.2 123.2a36 36 0 0 0-10.3 14.8l-27.5 55h-33l-32 32-96.3 33.1-128.7 63.9-161 32-96 97-97.3 64.1c-21.6 11-43.5 21.5-65 32.8l-94.7 63.1-193 65-129 96-96 32-258 161-32 64-160 129-65 129h-32l-128 64-258 64-32 32h-32l-193 97q-32 48.1-64.2 96.2l-31.8 31.8-193 65c-42.8 43-86.2 85.5-129.2 128.3l-96 129-32.8 63.7v65l33 32-97 160h-32l-225 290c-32.2 32.1-64.1 64.5-97 96h-192v32q-16.7-.1-33.3.1-190.8 64.2-381.7 128c-9.9 3.6-19 9-28.6 13.5q-51.5 25.3-102.6 51c-5.6 4.7-10.4 10.3-15.7 15.3q-9.2 8.8-17.8 18.1l-64.3 96-128 32h-32v32l-97 97q-48 16-96.3 32.2l-161 96c-54.1 21.9-108.3 43.4-162.3 65.6l-126.4 63.2-65 96v33l-64 64c-21.7 11-43.7 21.6-65.3 32.9l-95.7 63.1-32 129-96 129v610l-129 129v64l-129 193-64.1 225.3-63.9 160.7v32l-64.2 129.3-160.8 224.7-32 32-226 64-289 193-257 129-129-32q-16 16.2-32.3 32.1l-63.7 31.9v32l-129 225v193q-32 96.7-64 193.3c-10.9 64.8-21.4 129.7-32.4 194.4l-31.6 127.3c-11 21.7-22.6 43.3-33.4 65-10.5 32.4-21.5 64.7-31.8 97l-31.8 191v33l-96 160-32 193-33 97 33 32-33 64 33 97v128l-97 290-32 64-97 96-193 97-353 257-129 32h-32l-32 32-129-96v-64l-32-65v-64l-96-32-65 32-64-64-64-32-97-97-64-32-64-161v-64q-16-16.2-32.3-32.1-32.5-16.1-65-32l-159.7-32.9-97-96v32h-64l-65-32h-32l-64-32-97 32v-32l33-64-97-33v-64l-64 32-32 32h-32l-33-64h-32l-32-32h-64l-32-64h-65l-32-33q-32 48.7-64.2 97.2l-63.8 63.8v65l-33 32-193 32v-64h-64l-32 32h-32l-32 32h-65v32l-64 32-32 32-96-32-65 64v65l-32-32-96 32-33-65h-32l-32 65h-64v64h-64v64l-33 32 33 97h-65v32l-32-32h-96l-65-32-32 32-64-32q-16 16.2-32.3 32.1-96.6 47.6-192.7 95.9h-32l-33 65-64-32v-33l-32 33-64-33-32-64-33-32-64 64h-32v32l-64 33h-33l-32-33-32 33-96 32v-32h-65l-32 32v32h-193l-96-32v-32h-32v-33h-32c-11.4-10.8-22.4-22.1-34-32.7l-95-63.3h-64l-97 161h-32l-64-32-32-33h-65v-64h-32l-32 32h-32l-32-32h-33l-32-32v-97h-64l32-64-96-64q16.1-32.1 32-64.3l32-128.7-32-64v-193l-32-32 64-129v-97l-64-64h32l-32-64 32-97 32-32-32-32h-32l-32 32q-33-31.5-65-64l32-96-32-33h-32v-128l-32-65-32 33-32-33-65-32v-32l-96 32-32-32v-161l32-64v-32l32-32-64-65v-64l-32-64c-.2-11 .5-22.1-.4-33q-16.3-48.3-32.8-96.3l-31.8-63.7h-32v-64h64l33-97-33-32 161-193 32-161-32-64h-32v-64l-64-97-97-64 32-64-32-97v-32l97-32 64-64-32-33h-32l-32-32 32-32-65-96h65l32-65 32-32-96-96v-97q-64.1-31.5-128-63.5c-5.9-1.2-12.3-.1-18.3-.5-6.6.4-13.4-1-19.6 1.6l-92.1 30.4v-161q-48.1-96.4-96-193h32v-96l-32-32 32-32c-21.1-21.8-42.1-43.6-64-64.7-14.3-7.7-29.3-14.5-43.9-21.9l-21.1-10.4 33-128-33-33 65-32-65-128v-65h-64l32-32-32-32 32-64-32-97v-64l-64-32 32-65-32-96 32-32v-161l32-32v-64l64-33v-64l33-32 64 32v-32l-32-32v-32l32-32c.2-11.4-.5-22.8.4-34l31.6-95-32-96 32-33-32-64v-96l-32-33v-96l-97.3-96.2q-48-32.4-96-65l-31.7-31.8h-65q-32-63.8-63.5-127.8c-4.8-4.5-12.1-6.4-17.9-9.8l-111.6-55.4-96-257v-64l-32-65 32-64h32c.2-11-.5-22.1.4-33l31.6-96-32-128-32-32 32-33-32-32-97-32-32 32-32-32-32 32q-16-16.2-32.3-32.1l-63.7-31.9 32-64v-32l-129-65c-10.8-32.6-21.9-65-32.4-97.7l-31.6-127.3-64-64h-193l-97-32-32 32-32-32-65 32-32 32h-96l-64-64-97 32v64h-32l-32-32-129-32-64-32h-32l-32 32h-65l-32 32 32-32h-64l-97-64h-32v32l-32 32h-128l-33 32-32-32v-32h-64v32l-32-64-32 32h-65v-32l-96-65v-64l-32-32h-97l-32-32-32 32-64-65-65-32-32-32-32 32-64-64v-32h-32l-33-64v-33h-32v-32l-32 32-32-32-32-96v-129l-64-32h32l-32-32v-32l-65-32 32-33v-96l-32 32h-96v32l-32-32-32 32-33-32-32 32-32-32v32h-32v-32h-32v32l-32-32-33 64h-96l-32 33v32h-65v64l-32 32v32l32 33h-32v64l-64-32v64h32l-96 64v65l-32 32 32 32h-32l-33 64-32-32h-32v32h-32l-32 32-32-32v32l-32 32v33l-97 64h-64l32 96h-32q-16-16.2-32.3-32.1-64-31.4-127.6-63.4c-4.4-5-6.3-12-9.7-17.7l-23.4-46.8v-65l-32 32v-32h-65v32l32 33v32h-32v32l-96 96-64-32 32-32q-32-32.5-65-64l-32 32h-64v32l-64 32h-32v-32h-33l33-32h-33l-64 32v161l-64 32q-16 16.2-32.3 32.1l-64.7 31.9h-32l-32-64h-32l-64-32-33-32 33-65-33-64h-32l-64 32v32l-32 33c-18-18.6-36-37.3-54.8-55.1-2.5-3.1-9.6-8-9.2-9.9h32-33l-32-32-32 32h-64q-16.2-16-32.2-32.3l-31.8-63.7-65 32h-64l-32-32 32-32-32-33-65 65-32-32-32 32h-64l-32 32-32-32v-32h-65l32 64h-96l-32 32-32-32-33 32h-32l-32-32 32-97-64 33-96-33-65 33-32-33-32 33h-64l-33 32v-32l-32-33v-32l-32-32-32 32h-32v-32 64l32 33h-64v32l-97 64-64-64h-97v-32l-32 32v-32l-32-33h-32v-32l-64 32v33l-65 32 33 32h-33l-64-32v-32l-32 32v-32h-32l-32-33-33 33h-64v-33h-32l32-64h-64v-32l-32 32v-32l-97-32-64 32 32-32h-64l-64-64-33 32v32-64l-32 32-32-32-64 32h-32v-32h-65l-64-65h-32q-16 16.2-32.3 32.2l-64.7 32.8-128-33h-32l-33-64v-128l-32 32v-32h-32v-33h-32v-32h-32l32-32-32-64v-65l-129 65h-128a2467 2467 0 0 1-63.7-63.2l-33.3-33.8-32 32h-64v33l-33 32v32l-64-64-32 32h-32v64h32v64l-64 33h-65l-96-65-32 32-32 97h-32l-33-64h-32l-32-65-32-32-161 64 32 33-64-33h-64l-33-32h-192l32-64-32-32-33-97h-64l-32-32-32 64h-64l-33-32-32 32 32-160-32-33h-64v-64l32-64 161-97v-128l64-64 64-226v-64h-32l-32-32 97-64h64l32-33q-16-16.2-32.3-32.1l-256.7-127.9v-32c49.4-17 98.7-34.2 148.4-50.3l44.6-14.7 96-193v-96h-64c-31.6-31.2-63.7-62-94.3-94.2-5.3-4.5-1.6-12.6-2.7-18.8.7-6.3-1.5-13.3 1.5-19l30.5-61 193-129 65-64v-32l-193-97c-31.9-64.2-64.6-128-97-192l65-97 96-32v-32l-64-65-161-64-32-96v-97l32-96 64-32 65.2-97.3 31.8-63.7v-64c21.5-54.4 43.4-108.7 64.7-163.2l31.3-94.8 193-225c10.7-21.7 21.9-43.3 32.4-65l31.6-96-32-32-193-32-128-128q16-16.6 32.3-33.2l288.7-192.8 32-64v-161l-64-257v-32l97-161-97-161-32-128 96-64 97-161 64-65-32-64v-161h-64l-65 65h-64q-16.2-16-32.2-32.3-31.8-64.4-63.8-128.7-16.5-16.2-33.3-32.1l-63.7-31.9-64 32-64-32 32-65q144.6-96.4 289-193l32-96-32-64-161-129h-64l-96 64h-65l-64-32q-.2-16.2.1-32.3l63.9-160.7q64.1-31.5 128-63.4c4.6-1 9.4 1.2 14.1 1.6l179.9 29.8h64v-32q-32-63.7-63.4-127.7c-5.2-7.7-11.5-14.5-17.1-21.8l-112.5-139.5-32-65-32-32h-64l-97 193h-161v-96q33.2-96.5 65-193.3v-31.7h-97l-96-129v-97l64-96-96-289 32-129 96-161v-64l-128-193-193-32-129-97-64-225q16.1-48.2 32-96.3l32-160.7v-64l-64-64h-97l-96 96v32l-97-64-32-129q16.2-16 32.2-32.3l32.8-63.7 128-32 32-65-64-64h-129l-32-32v-32q16.2-16.5 32.2-33.3l32.8-63.7h96l96-32 33-96 96-65 193-32q-.2-16.2.1-32.3l63.9-160.7 65-32h160l65-32 64-129 64-32h32l65 32 96 97 64-129 129-161 32-64-1318-1029z" style="fill:#999;stroke:#fff;stroke-width:282.23678589;stroke-miterlimit:4;stroke-dasharray:none;stroke-opacity:1"/><path d="m104646 137841-33-32v-65q16.4-32.2 33.2-64.3l96-129q64.6-63.6 128.8-127.7l193-65c10.8-11 22.2-21.7 32.7-33l63.3-95 193-97h32l32-32 258-64 128-64h32l65-129 160-129 32-64 258-161 96-32 129-96 193-65 96.3-64.2c21.7-11 43.6-21.4 65-32.7q48-31.6 96-63.4l95.7-96.7 161-32c43.4-21.4 86.6-43.2 130-64.4l95-32.6 32-32h33l32-64c42-42.2 84.5-83.9 125.8-126.7 6.6-6.3 14.8-10.9 22-16.4l205.2-145.9 32-97c33-31.6 65-64 97.2-96.3l160.8-224.7q64.4-210.7 129.1-421.3l31.9-93.7 160-193h65v-32l64-32 64-97 225-160 32-97v-64l97-225 96-64 193-65 32-64 65-64 128-225v-129l-64-129v-96l-161-129-32-64c21.5-32.8 43.4-65.4 64.7-98.3l64.3-126.7 64-32c11.6.3 23.4-.6 35 .5q95.1 15.8 190.4 31.5h96.6l128-64c10.9-11.4 22.1-22.4 32.7-34q32.2-47.7 64.6-95.2l95.7-95.8q32-97 64.3-194l32.7-128 192.5-161.5 32.5-31.5v-96c10.9-44.3 22.2-88.5 32.8-132.9l31.2-157.1-32-32-32-193-65.2-96.2-31.8-31.8 32-65-32-161 32-64 32-32h129l97-32h32l32-64 96-33 65-160v-97l64-96 32-97 129-161 64-32h225l193-128 32-65 32-225-64-64-32-96v-161l32-161v-64l-64-97 32-160 161-354 64-64v-33l64-64 225-129 97-96 32-96 161-258c21.8-21.6 43.2-43.7 65.3-65l128-95.2 63.7-32.8v-32l161-289 64-32 32-129 32-32h32c49.5-32.7 99.2-65.1 148.2-98.6l44.8-30.4 290-64h193c43.4-11 86.9-21.5 130.2-32.7l94.8-31.3h32l64-32 65-65c21.6-11 43.5-21.4 65-32.7l160-127.3c10.8-22.2 22-44.1 32.5-66.4q32-96.5 64-192.8 48-112.8 96.3-225.4l128.2-255.4v-64l161-225v-33h96c22-21.5 43.7-43.5 66-64.7l95-63.3v-65h193c43-42.7 85.3-86 129-128l128-32 97-65v-32q32.1 0 64.4 0c86.8-21.8 173.8-43.2 260.6-65.1l221-62.9h32l65-32h32l96-161 65-65 64-32 96.2-128.3 32.8-64.7h160l65-64 64-32h96q64.4-31.6 128.5-63.6c6.4 1.7 12.5 6 18.8 8.8 15.9 7.7 31.5 16 47.6 23.4q95.5 31.5 191.1 63.4l193 225 97 32v65h96l64 32c11.4-.2 23 .4 34.4-.3l126.6-31.7 193 64 129-64h96l129 32 32 32c11-.2 22.1.5 33.1-.4l95.9-31.6h192q16.5 16.2 33.3 32.2l63.7 31.8 161 161h64l64 32 258-32q128.7 48 257.3 96.2l63.7 31.8h193l97-64 192.4-32h224.6l161 32h386v-32c33-10.8 66-22 99-32.5l126-31.5h97l32-32c43.4 11 86.9 21.5 130.2 32.7l94.8 31.3 64 128c34.4 36 70.2 70.7 105.5 105.9l55.5 55.1c32.7.1 65.5-.2 98.2.2l383.8 31.8 97-32 96-64 97-32 160 32h33l32 32v129l-65 32h-96l-64 64-65 257v161l32 64v258l161 289 32 97v64l129 193c11.3.2 22.7-.5 34 .4l159 31.6 64 32h32v-32l193-129 65-64q64.3-145.4 128.8-290.6l128.2-256.4 32-32h129q32.1 16.1 64.4 32l128.6 32c11 22.9 22.8 45.4 33.4 68.5l62.6 157.5 32 257.4c-.1 33 .3 66.1-.2 99.2l-31.8 543.4c11.2 10.9 21.9 22.5 33.4 33l287.6 192h65q16.2-16 32.2-32.3 31.8-64.4 63.8-128.7v-128l-64-161 32-161-64-96v-129l64-129c32.2-32.1 64.1-64.6 97-96v-32l-33-65 33-96c11-10.9 21.7-22.2 33-32.7l95-64.3h225c43.7-11 87.5-21.5 131.2-32.7l93.8-31.3q16.2-.2 32.3.1l160.7 63.9h97l32 33h96l97-33 128-128 65-32h128l97 32h225l161-64q32.1 0 64.4 0l160.6-33 128 33h129l64-33h97l96 33c32.2 32.1 64.1 64.6 97 96h160l65-32h32l32-64v-33l-161-160c.2-11.3-.5-22.7.4-34l31.6-159-32-32 32-33h97l32 33 64 32 97 161 32 96 32 32h64l32 97 97 32 64 64 97 32h96l129-64 32-97 96 33 65.2-97.3 63.8-127.7v-161l32-32h32l129 96 32 161 64 96 129 65h32l97-97 32-64v-129l32-64v-32l-32-32h-32v-97c10.8-11 22.2-21.7 32.7-33l63.3-96h32l65 33 160-65h161l97 32c21.7-10.7 43.3-21.9 65-32.4l95-31.6h32l161 129v64c30.5 30.2 61.5 59.9 91.1 91q34.8 35 69.9 70l64-32h65l96-97v-96l64-32h129v-33l64-32h129l64-64h65l64-64v32l161 161 32 64v64l-65 32v97l129 64 32 97h161l64 96h65l64 64 129 33 64 128 96 32h32l33 65v96h32c11 21.8 21.6 43.8 32.9 65.4l63.1 95.6q.2 16.2-.1 32.3l-63.9 160.7h-32l-65 96h-32l-32 65v96h-32v96h-32l32 33-64 32 32 96v97h32l-32 64 32 32-32 32h32l-32 32h32l-32 33v32h32v32l-32 32v32l96 65h65l32 64 96 32 97 96h64q32.1 16.6 64.4 33l128.6 32 32 64h32v64l32 65-32 32 64 128h33v97l64 32v97l64 32v64l-32 64v65l-32 64-32 32v32h-161l-64-32-32 32v32l-65 65 32 64h-32l-32 129-32 32h-32l-32 96-65 32 65 129c-21.9 43.7-44.2 87.1-65.8 131l-63.2 158 64 129 65 64h96v65l32 64h65l32 64 64 32 32 32-32 97v64l-32 32q31.8 96.8 64.2 193.3l31.8 64.7-32 96h32l32 32 97 32v33h-64v64l-65 32 97 96-32 97 32 32v32q32.2 48.6 64.2 97.3l31.8 63.7v-32h161l-32 32v32l-32 32v65l64-33 32 65h32v32l33 64v97l64 64-32 32h32l32 64v33l32 64 64 32 33 32q-28.7 27.3-56 55.7c-2.4 4.1-11 7.3-7.5 12.3l30.5 61-32 64h-32l32 64v33h-32l32 32h32l33 32 32-32v32l64-32h64l32 32 33-32 64 32 32-32 32 32v-32h65l32-32h32l32-33 96-32v-32h33v-32h64l32-32v-32l32-32h65.4l127.6 32q32.5-32 64-65h97l-32 65c11 10.8 21.7 22.2 33 32.7l95 63.3h65v-32q16.2 16 32.2 32.3l31.8 63.7q32-48.1 64.3-96.2 32-32.4 64.7-63.8h32l32-65h96v161l33 32 32 65h32l32 32v32h32l-32 32q16 16.2 32.3 32.2l63.7 31.8v-32l129-64v32l64 32h65l64 32h64v65l32 32v64l33 32-65 65v64l-32 32 32 64 97 97v32h-32l-33 32v32l-32 65v32l-32 32 32 32v32l-64 32v65h-64l-33 32 33 64h-33l-64 32v97l-64 32-193-32v64l-32 32v32l32 65-32 64v193h-64l-33 32h-32l32 64-96 97v32l-64 32-33 64 33 65h64l64 96v32l32 32-32 65-32 32h-32l-32 32 64 64-32 65 64 32v64q32.6 48.7 65.3 97.3l31.7 31.7h32l32 64 32 32v97h-32l-96-65-33 33h-32v32l-32 32-64-32v32h-32l-33 64 65 64 64 33v32l-96 32h-65l-64 32-32-32h-32v64l32 32h161l64 33 96-33 65 65 64 32 32 96h64v33l-64 64-128 32-33 96h-128l32 33-64 160 32 32-97 65 32 64-32-32-32 64-32 32v33l32 32-32 32 32 64-64 64h-32l32 33h32v32h32v32l32 32v64h32v33h33l32 64h64l-32 64 32 32-32 97v32l96 32v32h33l32 32 96 33v-33l64 33h97l32 32v32l32-32h64l33 32-33 32v32h33l64 32v65l-32 32 161 64v64l64-32 32 32h161v65h64v32l64 32h33l32-32v64l-97 97v64h97l-65 64 97 97-97 32v32l33 32h64l64 64v65l-64 32h-32l32-32-32-32-32 32-65-32-32 32-96 32v32l-65-32-32 32v32l32 32-32 33 32 32h65l32 96h64v32l64 32v-32l97 65h64l32-33v33h32l65 96 32-32h96v32l-32 32v32h-32v32l-64 33-65 128v65l33 32-33 32 33 96h-65v32h32v33l33 32 32 64 96 32 32-32 97-32 96 32 65-96h96v64h64l33 32 32-64 160-65 33-32 32 32 161-32 32-32c.2 11-.5 22.1.4 33.1l31.6 95.9c-.2 11 .5 22.1-.4 33l-31.6 95-32 33 64 32 64-65h65l64-64 96-32 129 32 96-64 97 32q16-16.2 32.3-32.2l63.7-31.8v-33q64.6-31.5 128.7-64c12.7-12 25-24.9 37.5-37.2l26.8-26.8h65l64-64v-33l64-32h32l-32 65v32h64v96h33v97h32l64-33h32v-96h32l32-64h97v-32l64 32v-32l65 32v64l32 32h32l64-32 32-32c-.2-11.3.5-22.7-.4-34l-31.6-159h64l33-64q16.2 16 32.2 32.3l31.8 63.7h32l32 32h65v-32h-33l-64-64v-32l32-65h32l33-32v-64h-33v-64l-64-97h32-161l-192 64h-33l-64-64 32-128 129-33 32-32 96-32v-32h33l32-32v-32h64l64 32 33-32 96-33h-32v-32l-64-32-33-96h-64v-32l-32-33 64-64v-32l32-32 97 32 96-64 65 32v32l32 64h-32l-33 65h33l-65 64v32l-32 32 64 64h33q32.1-16.2 64.4-32l160.6-32 64-96h64l32-32h-32l65-65v65h64l32 64q-48 32-96.3 64.3l-32.7 31.7v32l33 33 128-33h32l33-32h32l128-96 65 32 64-161-32-32h32l96 64h33q31.5 33 64 65h64l64 64-32 96h97l96-64h64l33-64h64l32-32 161-32 96 32 33-32h32v-33l32-64-32-32 160-97h33l64-32c11.1-.2 22.3.4 33.4-.3l127.6-31.7 64-64-32-32v-32c31.5-32.9 63.9-64.8 96-97h32l65-32 32-32h32l64-32 32-33 65 33 96-65q48.7-16 97.3-32.2l63.7-31.8v32h161l128 32c11.4-10.9 22.4-22.1 34-32.7l95-63.3h193l32-97 64-32 33-32h32l32 32h96q64.7-31.7 129-64v-32h128l65 32h64l129 129 32 128v32l-32 65 32 32h32v96h64l33 32h32q16.2 16.5 32.2 33.3l31.8 63.7-32 32v64l96-32 32 32 33-32 32 32-32 97v128h32l32 33 32-33 64 65 32-32v-33q16.7 16.5 33.2 33.3l31.8 63.7h32l64-129 32 65 65-33 64 65h64l-64 64v32h32l-32-32h97l32 32h32l96-128-32-33h32l32 33 65 32 32-32h32l32-33 64-32h65l32 32h32v-32l-32-32v-32l64-32v-32h32l65 32h64l-32 64h32v97h64l-32-65v-32l32 32v-64l33 32 64-32 32 64 32-32 32 32h65l32 65v-33l64-32 96 65 33-33h96l32 65 32-32h33v64l32 32h32l32 32-32 32c33.6 34.1 67 68.5 101.4 101.8l27.6 27.2v64l-33 32h-32v65q-16 16.2-32.3 32.2l-63.7 31.8h-32v32h32l-32 32h-97l-96 97 32 32h-65l-32 64v32l32 32-32 33h65v64h-65l-64 129-64 32v-32h-65l-96 64v32h-32l32-32-32-32-225 96h-129v-32h-96l-33 32-32 64-32 33c-11 .2-22.1-.5-33 .4l-95 31.6v-32h-33v-33h-32l32-64-32-32h-96l-64 64-65 32-64 65-64 32-97-64-96 64h-33l-128 64-32 32v33l-97 64-64-64-64 96h-97l-32-32c-11 10.8-21.7 22.2-33 32.7q-48.2 31.7-96.2 63.6l-63.8 64.7 32 32-32 32v32h-193v64l-32 33 32 32-32 64h32v32l-32 32v65l-32 32v32l-32 32v97l-32 32h32v32h32l-32 64h32l-32 32 32 32-64 33 32 32-65 32 33 64-33 32h-64l-32 33h-32v32h-32l-65 32v64l-32 32v65l-32 32 32 32h32v96h97l96 33-32 32 64 32v32l33 32-33 32 97-32v32l96 32v33l32 64v32l33 64h-33l97 33 64 64h32q33 31.5 65 64h-97.4l-160.6 32-32-32h-64v32l-32 32h-64l-33 33h-96q16.2-16.5 32.2-33.3l31.8-63.7-96-32h-64l-97 64v-96l32-32-32-65h-96l-33 65-32 32h-96l-32 32v64l-32 32h-33l-32 33v32l-32 32-32-32h-32c-32.4 32-65 63.7-97 96h-96l-64 64v-32l-33-32-64 64h32-32v97l64 64 65-64h32v64h64-128l-33 32h-64l-32 97v32h32l-64 64v65l-32-32v-97h-65l-32 32 32-64h-32q-16 16.2-32.3 32.2l-63.7 31.8 96 32-32 33h32v32l-32 32v-32h-32v-32l-64-33-33 33 33-65h-65v-32l-64 32-32-32h-32v64l64 33-32 64h32v64h-129v-64l-32-32-96 32-65 64v32l65 32v-32 97h32-32l32 32v32h-129l-32 64h-64 32l-32-32-32 64v-64h-97l32-32-32-32h-64l-97 32-96 64-97 129v32l-64 32-32-32-64 32h-32v-32h-33l-64 32-64 97v161l64 192h97v65l-65 64 65 129v160l-33-32v65l-128 64-32-32-32 32v-32l-97-32-64 64h-32l-33 32h-32v32h-64v-64h-96v-64l-33-33h-64v-64l-32-32h-129l-32 32-96 32h-32l-33-32 33-64h-97v-32h-64l-32 32v-32h-97l-32 32-32-65h-290v-32c-11.3.2-22.7-.5-34 .4l-158 31.6v-32l-65-32c-54.1.1-108.3-.2-162.4.2q-128 15.8-256 31.9l-352.6 96.9-65 32-32 64-64-32-97 64-32 33v32l-32 32h-32l32-32a3772 3772 0 0 1-64-65q-48.7 16.5-97.3 33.2-128.4 63.8-256.7 127.8v65h-32l-32 32 96-32q-16.2 16-32.2 32.3l-31.8 63.7v64l-64 32v33h32l-32 32h-33l-96 64v64l32 32 32-32v32h32c-21.1 21.8-42.2 43.7-64 64.8-21.1 11-42.7 21.4-64 32.2v129h32-64l-33 32v32l-32-32 32-32h-225l-96 96 32 32h-64l-32 32v65l-32 64v-32l32-64q-27.2-28.7-55.7-56c-4-2.1-8-12-11.9-6.4a3726 3726 0 0 0-61.4 62.4v-33h-64v-96l64-32-32-65-32-32-97-32h-128v64l-33-64h-32l-32 32h32l32 65v32h-64v64l32 32h-32v32l-32 65h-32l32-65-96-32-193 32q-96.8 48.7-193.7 97.3l-514.3 224.7-482.3 289.2-385.7 192.8-64 64-97 33-321.3 225.2-224.7 127.8-290 258v128c-32.3 32-64 64.6-96 97l64 64v32h32l-32 32 32 32h-32v33l-32-33-32 33v32c-11 .2-22.1-.5-33.1.4q-48.1 15.8-96.2 31.8l-127.7 63.8c-22.1 21.6-43.8 43.6-66.2 64.8q-113.5 81.5-227.2 162.5l-189.6 126.7-32 32v64q-32.2 16.1-64.3 32.2l-128.7 96.8v32l-128 32-675 418h-33v32l-160 97-33 64-225 64c-65.3 43.5-130.4 87.4-195.9 130.8l-415.1 255.2q-83.4 67.4-167 134.5l-572 444.5q-161.2 161-322.2 322.3l-159.8 191.7c-17.3 52.4-34.3 104.8-52.6 156.8l-12.4 36.2h-96c.2 11.4-.5 22.8.4 34l31.6 95 32 32v97l-64 64-32 129v32h32v64-32h-64q-48.7 32-97.2 64.3l-129 129-256.8 192.7-321 353h-32v-64c22.1-22 43.9-44.2 66.2-66l286.8-255-32-33 32-32h-64l-32 32-64-32v97h-65l-32 32-32-32a15153 15153 0 0 1-129 64q-80.7-64.5-161.2-129.2-16.1-16-32-32.1l-31.8-63.7h-64l-64-32-33-65 97-32 32-64v-64h32l32-32a7127 7127 0 0 0-124.2-63.1c-7.1-2-2.5-11.3-3.8-16.9-1-6.2 2.2-14.2-2-19l-63-62v-32l-64-97v-32l-32-32 32-64-32-97 32-32v-32h-32l-64-32v-33l32-32h-32v-32a4509 4509 0 0 0-64.2-63.3c-4.2-6.3-7-13.5-10.5-20.2l-22.3-44.5-32 32v64h-64v64l-32 32v97h-33l-32-64h-32v32l-64 64-32 64-65 65v-65h32v-96h-32l-32 32v-32h-64v-64l-97-97h-32v-32c-21.7-10.7-43.3-21.9-65-32.4l-95-31.6-33 32h-64l-193 128-32 129v64h-64c-11.2 11.4-22.8 22.4-33.7 34q-31.6 47.7-63.6 95.3-16 16-31.9 32l-31.8 63.7h-32q-64.9-63.5-129-128v-64l-32-33v-32h-64v-64l-32-32v-32h-33v-129h33v-32l64-32 32-65v-64l32-32-32-32 32-32-32-33v-160h32v32l32-64h-32q31.5-33 64-65v-64h-96l32-32-32-65 32-64 32-32v-96q48.7-32.6 97.3-65.2 16-16.2 32-32l63.7-31.8v-64h32v-65l32-32v-32l-32-32v32h-96v-32l-32-32h-32v-32h-33v-33h-64l-32-64v-32q-16.2-16-32.2-32.3l-31.8-64.7-32 33-65-65-32 32-32-32-64 65h-65v32l-64 32-32 64-64-32h32l-32-32 32-32h-32l32-32-32-33-65-32v129l-64-64-129 32-64 32h-32v-64h-32l-32 64-65 32-32-96-64-33h-65l-32-64-32-32-64 64-64-64-33 32 65 64h-32l-65-32-161 32h-32v33h-32l-32-33h-96l-65 65-32-65h-64v-32h-64v-64h-33l-64 32 32-96h32v-32h-32l-64 32-64-32h-33l-32 32 32 32 33-32-33 32v64q-16.2 16-32.2 32.3l-31.8 64.7h-32l-32 32h-32l-33-65h-32v33h-64v-33h-32l-32 65-65-32-32-33h-257l-32 33v32h-64v64h-161l-64-32h-97l-96-97h-33v-32h-32l32-64v-32h-32v-32h-32l32-97-32-32v-32l64-64-64-32h32v-33l-32-64v-64h32l32-32 33 32 32-65 32-32-32-32v-64l-32-65c11-.2 22.1.5 33-.4l95-31.6v-64q32-32.5 65-64h32v-65h-32l32-64-32-32 64-64 32-65v-32h-32l-32 65-32-33v-32q64.4-96.3 128-193h32l97-96-32-32h-65l-32-32h-96v-65h-32l-65-64h-32l-32 32-32-32v-64c-18.3-19-36.6-38-55.7-56-2.4-4-11.4-7-7.7-12l31.4-61-33-32h-32l32-32-32-32h-64v-33q-64.6-48-129.2-96.2l-31.8-31.8 65-32v-225l64-33-32-32v-32h-32l-97-64v-32l-32-33-32 33-32-33-33 33v-33l-96-32 32-32h-32l32-32-96-32h-32v-32l-33-32 33-33h-33v-32l-64-32-64-64v-64h-32v-33h-97l32-32h-32 32l32-32h-32v-32l-32-32h-32v-32l32-33v-32l-64-32h-32v-32h64v-32h-32v-32l-32-33-32 33-33-65h97l-32-32v-32h-32v-32l-65 32v32l-64-32h-32v-32q-33-33.2-66.7-65.8-15.2-15.6-30.3-31.2v-96l-64 64-32-64-32-32v-64l-32-33h32l32-32-64-32h32l64 32-32-32v-32h32a15153 15153 0 0 1 129-64v-129l-33-64v-33l33-32-65-32 32-32v-96l65 32h32l-32-65v-32l32-64-32-32v-32h-32v-32h-33l-32-33h-32v-64h-32v-32l-64-32v-32l-65-33 33-32v-32h-33v-64l-32-32 32-65 65-64v-32l-32-32 32-65-32-64 32-32q-48.7-32-97.2-64.2l-31.8-31.8 32-33h32l-32-64 32-32v-64l65 32v-161l64-64h32l32 32h32l-32-32 32-33h-64v-64h-32l-32-32h-32v-64h-97v-32l97-33 32 33 32-33-32-32v-32l-97-64h-96v-97l32 33 32-65v-64l-32-64v-97l-64-128-32-33 32-64h-32l-33-32v-97l-96-160-32-32 32-33h-96l-33-32v-32l-32 32-32-64-64-32-32-32 64-97-64-64h-65l-64 32-64-32h-65l-32-32h-32l-32-32v-33h-32l-64-64-97 32h-64a3772 3772 0 0 0-65-64l-32 32-64-64h-64v-129l32-64v-32h32v-32l-97.3-65.2-63.7-31.8h-96l-97-96v-33l32-32 33-96-33-64v-33l-96-64-32 32v32l32 65-32 32h-64l-33-97h-64l-96-32v32l-97 97-64-32h-65l-64 96h-96l-97-32-64 64-96 32h-97l-64-32-65 32h-32v-32q-16-16.2-32.3-32.2-64.4-31.8-128.7-63.8l-64 32h-64l-32 64h-161l-32-64-64-64v-32l-97-65-64 32h-65l-32 33v96h-32l-32 64-97-32-64 32-96-64h-32l-65 64-64-32q-16.2-16-32.2-32.3l-31.8-63.7q-16-16.2-32.3-32.2l-65-32.9-127.7-31.9-65 65-64 32c-21.8-10.8-43.4-22-65.4-32.5l-95.6-32.5-32-64h-96q-32.7 31.4-64.5 63.6c-7.2 11.5-13.6 23.7-20.4 35.5l-108.1 189.9-97 33h-64q-31.5-33-64-65h-193l-32-32 32-193.4v-63.6l-97-32-32-97q-16.2-16-32.2-32.3l-63.8-127.7-193-129-32-32h-161l-64 32h-33l-64-97h-96l-65 33h-64l-257-129h-257l-193-64-97.3-65.2c-21.6-10.6-43-21.7-64.8-32.2l-95.9-31.6h-32l-96-64-32-129h-33l-64-64-64-32-97 32c-11.1-.2-22.3.4-33.4-.3l-126.6-31.7h-65.4l-127.6-32-65 32h-64l-129-65h-96l-96 129h-33l-128 64h-65l-32-32-128 32-32 33c-22-11-44-22.5-66-33.4l-95-31.6q-64.6-48.1-129.3-96.2l-63.7-31.8h-225l-97 64h-96q-16.1-32.1-32-64.4l-32-128.6v-32h-65l-32-32h-32l-64-32-354 96c-11-.2-22.1.5-33.1-.4l-95.9-31.6c-31.2-31.3-62.6-62.3-93.3-94.1-12.3-12.4-24.3-25-37.1-37l-190.6-158.9h-97l-160-96-129-32h-161c-54.2-32.6-108.3-65.5-162.6-97.8l-62.4-31.2h-32l-64 32c-10.9 11.4-22.1 22.4-32.7 34l-64.3 95-32 96c-.2 11.4.4 23-.3 34.4l-31.7 126.6c.3 11.6-.6 23.4.5 35l31.5 190-129 32q-54.8 28.6-110.1 55.9l-82.9 41.1h-32v-161q-32-48.1-64.2-96.2l-31.8-31.8-129 32-64 32-64 64-97-32h-225q-81.4-32.2-162.6-64.8l-62.4-31.2h-32l-32-33h-65v33h-64l-161 96h-32l-96.3-64.2-64.7-31.8h-32l-128-129-65-97h-32c-21.9 11.5-44 22.4-65.7 34.1l-287.3 191.9-193 64h-97l-128-64-129-33-32-32h-129l-161 65c-21.7-11.3-43.6-22.2-65.2-33.8l-223.8-159.2-96-33-225 33q-16.5 16.2-33.3 32.2l-127.7 63.8v32l-65 32q-63.5 65-128 129l-129 32-64 97q-31.8-96.6-64-193zm39098 3826v32h-32v-32l32-32h-32v32m-804 1672v-32 32h64l-32 32h32v32l-32 32v-32l-32-32zm-4727 418v-32zm3827-1447h32zm836-64h-32l32-32v32h-32zm643-804v-32zm-1929 1125v-32zm64 1640v-32zm1833-2444h32v32h-32zm-1962 2444v-32zm225-321h-32v32h-32v32l97 32-33 32 33 32h32l64 65 32-65 32 32h32l33 33-33 32-32-32v192h32l-32 33v32l-64 64-96-32-65-97 32-64-64-96-64 32v-32l-32 32h-33l-32-32-32 32h-32v32l-64-32-33 64q-96.1 16-192.4 32c-11.2.2-22.5-.5-33.7.4l-94.9 31.6-96-32-65-96v-161h32l65-64h32v-32l64-32h32l-32-33h32l161-160 64-33v-128h32v-32l33-33v-64l32-96v-65l64-32 64 32 33 33h96v32h64l33 32h32l32 32v32l32 32h32l32 65h32l-32 32v64l-32 64h32v33l-64 32 32 32h32l-32 32h64l-32 32-96-32h-64l-65 64h32zm1158-1512h32zm-933 1319v-33l33 33zm-8295 2700h32zm9839-4855h32-32v32l-32-32zm-193 65h-32v-33h32zm-3666 1961h33zm901 322v-33h32v-32 65zm-6560 2540h33v32h-33zm33 96v-32h32v32zm9678-4759v32-32h32v-32 64zm-4084 1865v-32h32v32zm2026-997 32-32h32v32zm-2315 1287v-32h64l-32 32v32h-32zm2958-1447 32-32 32 32v32l-32-32-32 32zm0 1157 64-32 32-32v32l129 64-32 33-64-33-65 65-32-65zm482-1318v-32l97 32v32l-97 32-96 97v-97l-32-32 32-32v-32 32l32 32h32z" style="fill:#999;fill-opacity:1;stroke:#fff;stroke-width:282.23678589;stroke-miterlimit:4;stroke-dasharray:none;stroke-opacity:1"/></svg>